<svg width="31" height="24" viewBox="0 0 31 24" fill="none" xmlns="http://www.w3.org/2000/svg">
<g clip-path="url(#clip0_9284_32045)">
<path d="M5.61283 23.8825V22.294C5.61283 21.685 5.24209 21.288 4.60663 21.288C4.28897 21.288 3.94477 21.3939 3.70645 21.7381C3.52121 21.4468 3.25648 21.288 2.85934 21.288C2.59449 21.288 2.32989 21.3673 2.11799 21.6586V21.3409H1.56201V23.8825H2.11799V22.4793C2.11799 22.0293 2.3563 21.8174 2.72704 21.8174C3.09753 21.8174 3.28302 22.0557 3.28302 22.4793V23.8825H3.839V22.4793C3.839 22.0293 4.1036 21.8174 4.4478 21.8174C4.81853 21.8174 5.00378 22.0557 5.00378 22.4793V23.8825H5.61283ZM13.8465 21.3409H12.9465V20.5732H12.3905V21.3409H11.8874V21.8438H12.3904V23.0089C12.3904 23.5914 12.6287 23.9354 13.2641 23.9354C13.5024 23.9354 13.767 23.8561 13.9525 23.7502L13.7936 23.2736C13.6347 23.3795 13.4495 23.406 13.3171 23.406C13.0523 23.406 12.9465 23.2472 12.9465 22.9823V21.8438H13.8465V21.3409ZM18.5592 21.2878C18.2415 21.2878 18.0298 21.4468 17.8973 21.6586V21.3409H17.3413V23.8825H17.8973V22.4529C17.8973 22.0293 18.0826 21.791 18.4268 21.791C18.5327 21.791 18.6651 21.8175 18.771 21.8439L18.9298 21.3145C18.8239 21.288 18.6651 21.288 18.5592 21.288M11.4373 21.5528C11.1725 21.3674 10.8019 21.2881 10.4047 21.2881C9.76941 21.2881 9.34585 21.6058 9.34585 22.1088C9.34585 22.5325 9.66352 22.7707 10.2195 22.8501L10.4842 22.8767C10.7755 22.9295 10.9343 23.009 10.9343 23.1414C10.9343 23.3266 10.7225 23.4591 10.3518 23.4591C9.98107 23.4591 9.68993 23.3266 9.50456 23.1943L9.23984 23.6179C9.5311 23.8297 9.92824 23.9356 10.3253 23.9356C11.0666 23.9356 11.4903 23.5915 11.4903 23.1149C11.4903 22.6648 11.1461 22.4265 10.6165 22.3471L10.3518 22.3206C10.1135 22.294 9.92824 22.2412 9.92824 22.0824C9.92824 21.897 10.1135 21.7911 10.4047 21.7911C10.7225 21.7911 11.0402 21.9234 11.199 22.0029L11.4373 21.5528ZM26.2106 21.2881C25.8928 21.2881 25.681 21.4469 25.5486 21.6587V21.341H24.9926V23.8826H25.5486V22.453C25.5486 22.0294 25.734 21.7911 26.0781 21.7911C26.1841 21.7911 26.3165 21.8177 26.4224 21.8441L26.5812 21.3146C26.4753 21.2881 26.3165 21.2881 26.2106 21.2881ZM19.1152 22.6118C19.1152 23.3796 19.6446 23.9356 20.4654 23.9356C20.8361 23.9356 21.1008 23.8562 21.3655 23.6444L21.1008 23.1943C20.889 23.3532 20.6772 23.4325 20.4389 23.4325C19.9888 23.4325 19.6712 23.1149 19.6712 22.6118C19.6712 22.1353 19.9888 21.8175 20.4389 21.7911C20.6772 21.7911 20.889 21.8705 21.1008 22.0294L21.3655 21.5793C21.1008 21.3674 20.8361 21.2881 20.4654 21.2881C19.6446 21.2881 19.1152 21.8441 19.1152 22.6118ZM24.2514 22.6118V21.341H23.6954V21.6587C23.5101 21.4205 23.2453 21.2881 22.9011 21.2881C22.1863 21.2881 21.6304 21.8441 21.6304 22.6118C21.6304 23.3796 22.1863 23.9356 22.9011 23.9356C23.2718 23.9356 23.5366 23.8033 23.6954 23.565V23.8826H24.2514V22.6118ZM22.2127 22.6118C22.2127 22.1617 22.504 21.7911 22.9805 21.7911C23.4306 21.7911 23.7484 22.1353 23.7484 22.6118C23.7484 23.0619 23.4306 23.4325 22.9805 23.4325C22.504 23.406 22.2127 23.0619 22.2127 22.6118ZM15.5675 21.2881C14.8262 21.2881 14.2966 21.8175 14.2966 22.6118C14.2966 23.4061 14.8261 23.9356 15.5939 23.9356C15.9645 23.9356 16.3353 23.8297 16.6265 23.5915L16.3617 23.1943C16.1499 23.3532 15.8852 23.4591 15.6205 23.4591C15.2763 23.4591 14.9321 23.3002 14.8526 22.85H16.7324V22.6384C16.759 21.8175 16.2825 21.2881 15.5675 21.2881ZM15.5674 21.7646C15.9115 21.7646 16.1499 21.9765 16.2027 22.3736H14.879C14.9319 22.0294 15.1703 21.7646 15.5674 21.7646ZM29.361 22.6118V20.335H28.805V21.6587C28.6197 21.4205 28.3549 21.2881 28.0107 21.2881C27.2959 21.2881 26.7399 21.8441 26.7399 22.6118C26.7399 23.3796 27.2959 23.9356 28.0107 23.9356C28.3815 23.9356 28.6462 23.8033 28.805 23.565V23.8826H29.361V22.6118ZM27.3225 22.6118C27.3225 22.1617 27.6136 21.7911 28.0902 21.7911C28.5403 21.7911 28.858 22.1353 28.858 22.6118C28.858 23.0619 28.5403 23.4325 28.0902 23.4325C27.6136 23.406 27.3225 23.0619 27.3225 22.6118ZM8.73669 22.6118V21.341H8.18071V21.6587C7.99534 21.4205 7.73061 21.2881 7.38641 21.2881C6.6716 21.2881 6.11562 21.8441 6.11562 22.6118C6.11562 23.3796 6.6716 23.9356 7.38641 23.9356C7.75715 23.9356 8.02187 23.8033 8.18071 23.565V23.8826H8.73669V22.6118ZM6.6716 22.6118C6.6716 22.1617 6.96286 21.7911 7.43936 21.7911C7.88945 21.7911 8.20724 22.1353 8.20724 22.6118C8.20724 23.0619 7.88945 23.4325 7.43936 23.4325C6.96286 23.406 6.6716 23.0619 6.6716 22.6118Z" fill="black"/>
<path d="M11.252 2.03906H19.5917V17.0241H11.252V2.03906Z" fill="#FF5F00"/>
<path d="M11.7816 9.53114C11.7816 6.48651 13.2112 3.78597 15.4086 2.03855C13.7937 0.767759 11.7552 0 9.53126 0C4.26247 0 0 4.26247 0 9.53114C0 14.7998 4.26247 19.0623 9.53114 19.0623C11.7551 19.0623 13.7936 18.2945 15.4086 17.0236C13.2112 15.3027 11.7816 12.5758 11.7816 9.53114Z" fill="#EB001B"/>
<path d="M30.8437 9.53114C30.8437 14.7997 26.5812 19.0623 21.3125 19.0623C19.0886 19.0623 17.0501 18.2945 15.4351 17.0236C17.659 15.2763 19.0622 12.5758 19.0622 9.53114C19.0622 6.48651 17.6324 3.78597 15.4351 2.03855C17.0499 0.767759 19.0886 0 21.3125 0C26.5812 0 30.8437 4.28901 30.8437 9.53114Z" fill="#F79E1B"/>
</g>
<defs>
<clipPath id="clip0_9284_32045">
<rect width="30.8744" height="24" fill="white"/>
</clipPath>
</defs>
</svg>
