<svg width="18" height="18" viewBox="0 0 18 18" fill="none" xmlns="http://www.w3.org/2000/svg">
<path fill-rule="evenodd" clip-rule="evenodd" d="M2.76353 1.7491C2.19552 1.74915 1.73579 2.20896 1.73584 2.77697L1.73653 10.9157L4.88164 10.9154C5.5026 10.9154 6.0702 11.2661 6.3475 11.822L6.3476 11.8222L6.74421 12.6153L6.74428 12.6154C6.76853 12.6637 6.81697 12.693 6.86935 12.693L11.104 12.6927C11.1568 12.6927 11.2042 12.6631 11.2275 12.6165L11.2279 12.6157L11.6251 11.821L11.6255 11.8202C11.9035 11.2658 12.4701 10.9148 13.0914 10.9147L16.2365 10.9145L16.2358 2.77574C16.2358 2.20773 15.776 1.748 15.208 1.74805L2.76353 1.7491ZM0.23584 2.77709L0.236593 11.6658L0.236894 15.2215C0.237013 16.618 1.36845 17.7492 2.76489 17.7491L15.2093 17.748C16.6058 17.7479 17.737 16.6165 17.7369 15.2201L17.7366 11.6643L17.7358 2.77561C17.7357 1.37917 16.6043 0.247928 15.2078 0.248047L2.7634 0.249101C1.36697 0.24922 0.235721 1.38066 0.23584 2.77709ZM16.2369 15.2202L16.2367 12.4145L13.0915 12.4147C13.0392 12.4147 12.9908 12.4441 12.9665 12.4923L12.9664 12.4925L12.5699 13.2856L12.5697 13.2861C12.2925 13.8419 11.725 14.1926 11.1041 14.1927L6.86947 14.193C6.24812 14.1931 5.68146 13.8421 5.40342 13.2878L5.40302 13.287L5.00562 12.4924L5.00522 12.4916C4.982 12.445 4.93452 12.4154 4.88177 12.4154L1.73666 12.4157L1.73689 15.2214C1.73694 15.7894 2.19675 16.2491 2.76476 16.2491L15.2092 16.248C15.7772 16.248 16.2369 15.7882 16.2369 15.2202ZM3.79133 4.55479C3.79129 4.14057 4.12705 3.80476 4.54127 3.80472L13.4302 3.80397C13.8444 3.80393 14.1802 4.13969 14.1802 4.55391C14.1803 4.96812 13.8445 5.30394 13.4303 5.30397L4.54139 5.30472C4.12718 5.30476 3.79136 4.969 3.79133 4.55479ZM3.79163 8.11012C3.7916 7.69591 4.12735 7.3601 4.54157 7.36006L13.4305 7.35931C13.8447 7.35927 14.1805 7.69503 14.1805 8.10924C14.1806 8.52346 13.8448 8.85927 13.4306 8.85931L4.54169 8.86006C4.12748 8.8601 3.79167 8.52434 3.79163 8.11012Z" fill="#374151"/>
<path fill-rule="evenodd" clip-rule="evenodd" d="M2.76353 1.7491C2.19552 1.74915 1.73579 2.20896 1.73584 2.77697L1.73653 10.9157L4.88164 10.9154C5.5026 10.9154 6.0702 11.2661 6.3475 11.822L6.3476 11.8222L6.74421 12.6153L6.74428 12.6154C6.76853 12.6637 6.81697 12.693 6.86935 12.693L11.104 12.6927C11.1568 12.6927 11.2042 12.6631 11.2275 12.6165L11.2279 12.6157L11.6251 11.821L11.6255 11.8202C11.9035 11.2658 12.4701 10.9148 13.0914 10.9147L16.2365 10.9145L16.2358 2.77574C16.2358 2.20773 15.776 1.748 15.208 1.74805L2.76353 1.7491ZM0.23584 2.77709L0.236593 11.6658L0.236894 15.2215C0.237013 16.618 1.36845 17.7492 2.76489 17.7491L15.2093 17.748C16.6058 17.7479 17.737 16.6165 17.7369 15.2201L17.7366 11.6643L17.7358 2.77561C17.7357 1.37917 16.6043 0.247928 15.2078 0.248047L2.7634 0.249101C1.36697 0.24922 0.235721 1.38066 0.23584 2.77709ZM16.2369 15.2202L16.2367 12.4145L13.0915 12.4147C13.0392 12.4147 12.9908 12.4441 12.9665 12.4923L12.9664 12.4925L12.5699 13.2856L12.5697 13.2861C12.2925 13.8419 11.725 14.1926 11.1041 14.1927L6.86947 14.193C6.24812 14.1931 5.68146 13.8421 5.40342 13.2878L5.40302 13.287L5.00562 12.4924L5.00522 12.4916C4.982 12.445 4.93452 12.4154 4.88177 12.4154L1.73666 12.4157L1.73689 15.2214C1.73694 15.7894 2.19675 16.2491 2.76476 16.2491L15.2092 16.248C15.7772 16.248 16.2369 15.7882 16.2369 15.2202ZM3.79133 4.55479C3.79129 4.14057 4.12705 3.80476 4.54127 3.80472L13.4302 3.80397C13.8444 3.80393 14.1802 4.13969 14.1802 4.55391C14.1803 4.96812 13.8445 5.30394 13.4303 5.30397L4.54139 5.30472C4.12718 5.30476 3.79136 4.969 3.79133 4.55479ZM3.79163 8.11012C3.7916 7.69591 4.12735 7.3601 4.54157 7.36006L13.4305 7.35931C13.8447 7.35927 14.1805 7.69503 14.1805 8.10924C14.1806 8.52346 13.8448 8.85927 13.4306 8.85931L4.54169 8.86006C4.12748 8.8601 3.79167 8.52434 3.79163 8.11012Z" fill="black" fill-opacity="0.2"/>
</svg>
