<svg width="17" height="16" viewBox="0 0 17 16" fill="none" xmlns="http://www.w3.org/2000/svg">
<path fill-rule="evenodd" clip-rule="evenodd" d="M6.43723 0.645998C6.93432 0.645115 7.39959 0.890578 7.67948 1.30145L7.68023 1.30255L8.73005 2.84953L8.73083 2.85068L8.73072 2.85062L8.7311 2.85062L13.5835 2.85062C14.826 2.85062 15.8333 3.85787 15.8333 5.10037V7.39497C15.8333 7.80919 15.4975 8.14497 15.0833 8.14497C14.669 8.14497 14.3333 7.80919 14.3333 7.39497V5.10037C14.3333 4.6863 13.9976 4.35062 13.5835 4.35062L8.73148 4.35062L8.7311 4.35062C8.23318 4.35075 7.76766 4.10377 7.48859 3.69142L7.48808 3.69067L6.43983 2.146L6.43799 2.146H3.08531C2.67124 2.146 2.33557 2.48167 2.33557 2.89574V11.8942C2.33557 12.3083 2.67124 12.6439 3.08531 12.6439H6.83467C7.24889 12.6439 7.58467 12.9797 7.58467 13.3939C7.58467 13.8082 7.24889 14.1439 6.83467 14.1439H3.08531C1.84282 14.1439 0.835571 13.1367 0.835571 11.8942V2.89574C0.835571 1.65325 1.84281 0.645998 3.08531 0.645998H6.43723ZM11.7183 10.3353C12.0112 10.6282 12.0112 11.1031 11.7183 11.396L11.1317 11.9826H13.9965C14.6132 11.9826 15.1131 11.4827 15.1131 10.866C15.1131 10.2493 14.6132 9.74938 13.9965 9.74938H13.0632C12.649 9.74938 12.3132 9.41359 12.3132 8.99938C12.3132 8.58516 12.649 8.24938 13.0632 8.24938H13.9965C15.4416 8.24938 16.6131 9.42087 16.6131 10.866C16.6131 12.3111 15.4416 13.4826 13.9965 13.4826H11.1324L11.7183 14.0685C12.0112 14.3614 12.0112 14.8363 11.7183 15.1292C11.4254 15.4221 10.9505 15.4221 10.6576 15.1292L8.79104 13.2626C8.49814 12.9697 8.49814 12.4948 8.79104 12.2019L10.6576 10.3353C10.9505 10.0424 11.4254 10.0424 11.7183 10.3353Z" fill="#374151"/>
<path fill-rule="evenodd" clip-rule="evenodd" d="M6.43723 0.645998C6.93432 0.645115 7.39959 0.890578 7.67948 1.30145L7.68023 1.30255L8.73005 2.84953L8.73083 2.85068L8.73072 2.85062L8.7311 2.85062L13.5835 2.85062C14.826 2.85062 15.8333 3.85787 15.8333 5.10037V7.39497C15.8333 7.80919 15.4975 8.14497 15.0833 8.14497C14.669 8.14497 14.3333 7.80919 14.3333 7.39497V5.10037C14.3333 4.6863 13.9976 4.35062 13.5835 4.35062L8.73148 4.35062L8.7311 4.35062C8.23318 4.35075 7.76766 4.10377 7.48859 3.69142L7.48808 3.69067L6.43983 2.146L6.43799 2.146H3.08531C2.67124 2.146 2.33557 2.48167 2.33557 2.89574V11.8942C2.33557 12.3083 2.67124 12.6439 3.08531 12.6439H6.83467C7.24889 12.6439 7.58467 12.9797 7.58467 13.3939C7.58467 13.8082 7.24889 14.1439 6.83467 14.1439H3.08531C1.84282 14.1439 0.835571 13.1367 0.835571 11.8942V2.89574C0.835571 1.65325 1.84281 0.645998 3.08531 0.645998H6.43723ZM11.7183 10.3353C12.0112 10.6282 12.0112 11.1031 11.7183 11.396L11.1317 11.9826H13.9965C14.6132 11.9826 15.1131 11.4827 15.1131 10.866C15.1131 10.2493 14.6132 9.74938 13.9965 9.74938H13.0632C12.649 9.74938 12.3132 9.41359 12.3132 8.99938C12.3132 8.58516 12.649 8.24938 13.0632 8.24938H13.9965C15.4416 8.24938 16.6131 9.42087 16.6131 10.866C16.6131 12.3111 15.4416 13.4826 13.9965 13.4826H11.1324L11.7183 14.0685C12.0112 14.3614 12.0112 14.8363 11.7183 15.1292C11.4254 15.4221 10.9505 15.4221 10.6576 15.1292L8.79104 13.2626C8.49814 12.9697 8.49814 12.4948 8.79104 12.2019L10.6576 10.3353C10.9505 10.0424 11.4254 10.0424 11.7183 10.3353Z" fill="black" fill-opacity="0.2"/>
</svg>
