<svg width="16" height="16" viewBox="0 0 16 16" fill="none" xmlns="http://www.w3.org/2000/svg">
<path fill-rule="evenodd" clip-rule="evenodd" d="M6.22946 0.788773C5.92543 0.685362 5.58929 0.786997 5.39349 1.04154L0.393325 7.54175C0.185943 7.81135 0.18595 8.18675 0.39334 8.45634L5.3935 14.9561C5.58931 15.2107 5.92545 15.3123 6.22948 15.2089C6.53351 15.1055 6.73796 14.82 6.73795 14.4988L6.73788 10.7563C10.4712 10.8299 12.2366 11.4528 13.1065 12.1348C13.9116 12.766 14.0453 13.5046 14.2077 14.402C14.2216 14.479 14.2358 14.5572 14.2506 14.6366C14.32 15.0087 14.6558 15.2708 15.0336 15.2477C15.4115 15.2246 15.7129 14.9236 15.7364 14.5458C15.8556 12.6335 15.706 10.2828 14.3076 8.40453C12.9653 6.60167 10.603 5.39904 6.73791 5.26229L6.73795 1.49883C6.73796 1.17769 6.5335 0.892185 6.22946 0.788773ZM5.23793 3.70395L5.23791 5.99924C5.2379 6.41344 5.57365 6.74922 5.98784 6.74925C10.0245 6.74959 12.0608 7.89856 13.1044 9.30032C13.4568 9.77355 13.7123 10.2963 13.8926 10.8493C12.525 9.85738 10.1589 9.24946 5.98793 9.2491C5.78901 9.24909 5.59822 9.3281 5.45756 9.46876C5.31689 9.60941 5.23786 9.80019 5.23787 9.99912L5.23791 12.2938L1.93403 7.99902L5.23793 3.70395Z" fill="#7D8697"/>
</svg>
