<svg width="26" height="22" viewBox="0 0 26 22" fill="none" xmlns="http://www.w3.org/2000/svg">
<path d="M1.00398 7.66569C1.00393 7.07632 1.28484 6.51107 1.7849 6.09428C2.28496 5.67749 2.96322 5.4433 3.67046 5.44324L22.3371 5.44166C23.0444 5.4416 23.7227 5.67567 24.2228 6.09237C24.7229 6.50908 25.0039 7.07429 25.004 7.66366M1.00417 9.88791L5.00417 9.88757C6.07084 9.88748 7.13753 10.2207 7.80426 10.8873L9.27101 11.8872C11.4045 13.6648 14.7378 13.6645 16.871 11.8866L18.3376 10.8864C19.0042 10.3308 20.0708 9.8863 21.1375 9.88621L25.0042 9.88588M3.67008 0.998797L22.3368 0.997215C23.8095 0.997091 25.0035 1.99191 25.0036 3.21921L25.0049 18.7748C25.005 20.0021 23.8112 20.9971 22.3384 20.9972L3.67178 20.9988C2.19902 20.9989 1.00503 20.0041 1.00492 18.7768L1.00361 3.22125C1.0035 1.99395 2.19733 0.998922 3.67008 0.998797Z" stroke="#374151" stroke-width="2" stroke-linecap="round" stroke-linejoin="round"/>
</svg>
