<svg width="22" height="21" viewBox="0 0 22 21" fill="none" xmlns="http://www.w3.org/2000/svg">
<path d="M8.98564 13.0144C8.98564 15.7989 11.4594 18.0337 14.4855 18.0337C14.8773 18.0337 15.2586 17.995 15.6277 17.9239" stroke="#6B7280" stroke-width="2.3" stroke-linecap="round" stroke-linejoin="round"/>
<path fill-rule="evenodd" clip-rule="evenodd" d="M17.786 17.0233C19.1176 16.1093 19.9854 14.6603 19.9854 13.0144L17.786 17.0233Z" fill="#6B7280"/>
<path d="M17.786 17.0233C19.1176 16.1093 19.9854 14.6603 19.9854 13.0144" stroke="#6B7280" stroke-width="2.3" stroke-linecap="round" stroke-linejoin="round"/>
<path fill-rule="evenodd" clip-rule="evenodd" d="M17.7855 17.0234C17.7861 17.5473 17.7849 18.254 17.7849 18.9957L17.7855 17.0234Z" fill="#6B7280"/>
<path d="M17.7855 17.0234C17.7861 17.5473 17.7849 18.254 17.7849 18.9957" stroke="#6B7280" stroke-width="2.3" stroke-linecap="round" stroke-linejoin="round"/>
<path d="M19.9854 13.0143C19.9854 10.2298 17.5116 7.99561 14.4854 7.99561" stroke="#6B7280" stroke-width="2.3" stroke-linecap="round" stroke-linejoin="round"/>
<path fill-rule="evenodd" clip-rule="evenodd" d="M15.6282 17.9211L17.7854 18.9947L15.6282 17.9211Z" fill="#6B7280"/>
<path d="M15.6282 17.9211L17.7854 18.9947" stroke="#6B7280" stroke-width="2.3" stroke-linecap="round" stroke-linejoin="round"/>
<path d="M13.9855 7.4707C13.9855 10.5083 11.2868 12.9464 7.9855 12.9464C7.55817 12.9464 7.14217 12.9042 6.7395 12.8266" stroke="#6B7280" stroke-width="2.3" stroke-linecap="round" stroke-linejoin="round"/>
<path fill-rule="evenodd" clip-rule="evenodd" d="M4.38517 11.8444C2.93251 10.8472 1.98584 9.2665 1.98584 7.47095L4.38517 11.8444Z" fill="#6B7280"/>
<path d="M4.38517 11.8444C2.93251 10.8472 1.98584 9.2665 1.98584 7.47095" stroke="#6B7280" stroke-width="2.3" stroke-linecap="round" stroke-linejoin="round"/>
<path fill-rule="evenodd" clip-rule="evenodd" d="M4.38558 11.8442C4.38492 12.4158 4.38625 13.1867 4.38625 13.9958L4.38558 11.8442Z" fill="#6B7280"/>
<path d="M4.38558 11.8442C4.38492 12.4158 4.38625 13.1867 4.38625 13.9958" stroke="#6B7280" stroke-width="2.3" stroke-linecap="round" stroke-linejoin="round"/>
<path d="M1.98584 7.47059C1.98584 4.43295 4.68451 1.99561 7.98584 1.99561C11.2872 1.99561 13.9858 4.43362 13.9858 7.47126" stroke="#6B7280" stroke-width="2.3" stroke-linecap="round" stroke-linejoin="round"/>
<path fill-rule="evenodd" clip-rule="evenodd" d="M6.73908 12.8237L4.38574 13.9949L6.73908 12.8237Z" fill="#6B7280"/>
<path d="M6.73908 12.8237L4.38574 13.9949" stroke="#6B7280" stroke-width="2.3" stroke-linecap="round" stroke-linejoin="round"/>
</svg>
