<svg width="22" height="22" viewBox="0 0 22 22" fill="none" xmlns="http://www.w3.org/2000/svg">
<path d="M5.55538 10.9626C5.19732 10.1362 4.99825 9.2354 4.99817 8.29026C4.99783 4.247 8.59546 1.00262 12.9973 1.00224C17.3992 1.00186 20.9974 4.24562 20.9977 8.28888C20.9979 10.6784 19.7361 12.7822 17.7993 14.109C17.8004 14.8699 17.7985 15.8956 17.7985 16.9726L14.6595 15.4167C14.1225 15.5204 13.5675 15.5769 12.9986 15.5769C12.2916 15.577 11.6056 15.4925 10.9516 15.3345" stroke="#6B7280" stroke-width="2" stroke-linecap="round" stroke-linejoin="round"/>
<path d="M6.07754 20.8063C8.78547 20.806 10.9812 18.5955 10.981 15.8698C10.9808 13.1441 8.78564 10.9339 6.07672 10.9341C3.36779 10.9344 1.17304 13.1449 1.17326 15.8706" stroke="#6B7280" stroke-width="2" stroke-linecap="round" stroke-linejoin="round"/>
<path d="M6.0823 20.8113C5.34432 20.8113 4.64533 20.6473 4.01732 20.3545L0.999458 20.9999L1.63018 17.9561C1.33714 17.322 1.17308 16.6154 1.17302 15.8706" stroke="#6B7280" stroke-width="2" stroke-linecap="round" stroke-linejoin="round"/>
</svg>
