<svg width="18" height="18" viewBox="0 0 18 18" fill="none" xmlns="http://www.w3.org/2000/svg">
<path fill-rule="evenodd" clip-rule="evenodd" d="M8.31849 0.249023C7.87201 0.249023 7.47963 0.545001 7.35697 0.974302L6.92798 2.47575L5.86781 3.00584L4.3821 2.15686C3.99056 1.93313 3.49772 1.99913 3.17885 2.318L2.29843 3.19842C1.99407 3.50278 1.91861 3.96776 2.11111 4.35274L2.7572 5.64492L2.38038 6.96378L0.962339 7.36893C0.533038 7.49159 0.237061 7.88398 0.237061 8.33046V9.66759C0.237061 10.1141 0.533038 10.5065 0.962339 10.6291L2.46379 11.0581L2.99388 12.1183L2.1449 13.604C1.92117 13.9955 1.98717 14.4884 2.30604 14.8072L3.17885 15.68C3.49772 15.9989 3.99056 16.0649 4.3821 15.8412L5.86781 14.9922L6.92798 15.5223L7.35697 17.0237C7.47963 17.453 7.87201 17.749 8.31849 17.749H9.65563C10.1021 17.749 10.4945 17.453 10.6172 17.0237L11.0461 15.5223L12.1063 14.9922L13.592 15.8412C13.9836 16.0649 14.4764 15.9989 14.7953 15.68L15.6681 14.8072C15.987 14.4884 16.053 13.9955 15.8292 13.604L14.9802 12.1183L15.5103 11.0581L17.0118 10.6291C17.4411 10.5065 17.7371 10.1141 17.7371 9.66759V8.33046C17.7371 7.88398 17.4411 7.49159 17.0118 7.36893L15.5103 6.93995L14.9802 5.87977L15.8292 4.39406C16.053 4.00253 15.987 3.50969 15.6681 3.19081L14.7953 2.318C14.4764 1.99913 13.9836 1.93313 13.592 2.15686L12.1063 3.00584L11.0461 2.47575L10.6172 0.974302C10.4945 0.545001 10.1021 0.249023 9.65563 0.249023H8.31849ZM8.30985 3.09932L8.69564 1.74902H9.27848L9.66428 3.09932C9.74128 3.36884 9.92787 3.59367 10.1786 3.71903L11.6748 4.46715C11.9739 4.61668 12.3279 4.60685 12.6182 4.44097L14.0047 3.6487L14.3374 3.98143L13.5451 5.36789C13.3792 5.6582 13.3694 6.01219 13.5189 6.31125L14.2671 7.8075C14.3924 8.05821 14.6172 8.2448 14.8868 8.32181L16.2371 8.70761V9.29044L14.8868 9.67624C14.6172 9.75325 14.3924 9.93984 14.2671 10.1905L13.5189 11.6868C13.3694 11.9859 13.3792 12.3399 13.5451 12.6302L14.3374 14.0166L14.0047 14.3493L12.6182 13.5571C12.3279 13.3912 11.9739 13.3814 11.6748 13.5309L10.1786 14.279C9.92787 14.4044 9.74128 14.6292 9.66428 14.8987L9.27848 16.249H8.69564L8.30985 14.8987C8.23284 14.6292 8.04625 14.4044 7.79553 14.279L6.29928 13.5309C6.00023 13.3814 5.64623 13.3912 5.35593 13.5571L3.96947 14.3493L3.63674 14.0166L4.429 12.6302C4.59489 12.3399 4.60472 11.9859 4.45519 11.6868L3.70706 10.1905C3.58171 9.93984 3.35688 9.75325 3.08736 9.67624L1.73706 9.29044V8.70761L3.05956 8.32975C3.39176 8.23483 3.65144 7.97516 3.74636 7.64295L4.25292 5.87C4.32165 5.62943 4.29771 5.37184 4.18582 5.14806L3.61392 4.00426L3.96947 3.6487L5.35593 4.44097C5.64623 4.60685 6.00023 4.61668 6.29928 4.46715L7.79553 3.71903C8.04625 3.59367 8.23284 3.36884 8.30985 3.09932ZM11.4874 8.99896C11.4874 10.3797 10.3681 11.499 8.9874 11.499C7.60669 11.499 6.4874 10.3797 6.4874 8.99896C6.4874 7.61825 7.60669 6.49896 8.9874 6.49896C10.3681 6.49896 11.4874 7.61825 11.4874 8.99896ZM12.9874 8.99896C12.9874 11.2081 11.1965 12.999 8.9874 12.999C6.77826 12.999 4.9874 11.2081 4.9874 8.99896C4.9874 6.78982 6.77826 4.99896 8.9874 4.99896C11.1965 4.99896 12.9874 6.78982 12.9874 8.99896Z" fill="#374151"/>
<path fill-rule="evenodd" clip-rule="evenodd" d="M8.31849 0.249023C7.87201 0.249023 7.47963 0.545001 7.35697 0.974302L6.92798 2.47575L5.86781 3.00584L4.3821 2.15686C3.99056 1.93313 3.49772 1.99913 3.17885 2.318L2.29843 3.19842C1.99407 3.50278 1.91861 3.96776 2.11111 4.35274L2.7572 5.64492L2.38038 6.96378L0.962339 7.36893C0.533038 7.49159 0.237061 7.88398 0.237061 8.33046V9.66759C0.237061 10.1141 0.533038 10.5065 0.962339 10.6291L2.46379 11.0581L2.99388 12.1183L2.1449 13.604C1.92117 13.9955 1.98717 14.4884 2.30604 14.8072L3.17885 15.68C3.49772 15.9989 3.99056 16.0649 4.3821 15.8412L5.86781 14.9922L6.92798 15.5223L7.35697 17.0237C7.47963 17.453 7.87201 17.749 8.31849 17.749H9.65563C10.1021 17.749 10.4945 17.453 10.6172 17.0237L11.0461 15.5223L12.1063 14.9922L13.592 15.8412C13.9836 16.0649 14.4764 15.9989 14.7953 15.68L15.6681 14.8072C15.987 14.4884 16.053 13.9955 15.8292 13.604L14.9802 12.1183L15.5103 11.0581L17.0118 10.6291C17.4411 10.5065 17.7371 10.1141 17.7371 9.66759V8.33046C17.7371 7.88398 17.4411 7.49159 17.0118 7.36893L15.5103 6.93995L14.9802 5.87977L15.8292 4.39406C16.053 4.00253 15.987 3.50969 15.6681 3.19081L14.7953 2.318C14.4764 1.99913 13.9836 1.93313 13.592 2.15686L12.1063 3.00584L11.0461 2.47575L10.6172 0.974302C10.4945 0.545001 10.1021 0.249023 9.65563 0.249023H8.31849ZM8.30985 3.09932L8.69564 1.74902H9.27848L9.66428 3.09932C9.74128 3.36884 9.92787 3.59367 10.1786 3.71903L11.6748 4.46715C11.9739 4.61668 12.3279 4.60685 12.6182 4.44097L14.0047 3.6487L14.3374 3.98143L13.5451 5.36789C13.3792 5.6582 13.3694 6.01219 13.5189 6.31125L14.2671 7.8075C14.3924 8.05821 14.6172 8.2448 14.8868 8.32181L16.2371 8.70761V9.29044L14.8868 9.67624C14.6172 9.75325 14.3924 9.93984 14.2671 10.1905L13.5189 11.6868C13.3694 11.9859 13.3792 12.3399 13.5451 12.6302L14.3374 14.0166L14.0047 14.3493L12.6182 13.5571C12.3279 13.3912 11.9739 13.3814 11.6748 13.5309L10.1786 14.279C9.92787 14.4044 9.74128 14.6292 9.66428 14.8987L9.27848 16.249H8.69564L8.30985 14.8987C8.23284 14.6292 8.04625 14.4044 7.79553 14.279L6.29928 13.5309C6.00023 13.3814 5.64623 13.3912 5.35593 13.5571L3.96947 14.3493L3.63674 14.0166L4.429 12.6302C4.59489 12.3399 4.60472 11.9859 4.45519 11.6868L3.70706 10.1905C3.58171 9.93984 3.35688 9.75325 3.08736 9.67624L1.73706 9.29044V8.70761L3.05956 8.32975C3.39176 8.23483 3.65144 7.97516 3.74636 7.64295L4.25292 5.87C4.32165 5.62943 4.29771 5.37184 4.18582 5.14806L3.61392 4.00426L3.96947 3.6487L5.35593 4.44097C5.64623 4.60685 6.00023 4.61668 6.29928 4.46715L7.79553 3.71903C8.04625 3.59367 8.23284 3.36884 8.30985 3.09932ZM11.4874 8.99896C11.4874 10.3797 10.3681 11.499 8.9874 11.499C7.60669 11.499 6.4874 10.3797 6.4874 8.99896C6.4874 7.61825 7.60669 6.49896 8.9874 6.49896C10.3681 6.49896 11.4874 7.61825 11.4874 8.99896ZM12.9874 8.99896C12.9874 11.2081 11.1965 12.999 8.9874 12.999C6.77826 12.999 4.9874 11.2081 4.9874 8.99896C4.9874 6.78982 6.77826 4.99896 8.9874 4.99896C11.1965 4.99896 12.9874 6.78982 12.9874 8.99896Z" fill="black" fill-opacity="0.2"/>
</svg>
