<svg width="18" height="18" viewBox="0 0 18 18" fill="none" xmlns="http://www.w3.org/2000/svg">
<path d="M7.46012 14.9498L5.96387 14.2017C5.88911 14.1643 5.80061 14.1668 5.72804 14.2083L4.00999 15.19C3.91211 15.2459 3.7889 15.2294 3.70918 15.1497L2.83637 14.2769C2.75665 14.1972 2.74015 14.074 2.79608 13.9761L3.77782 12.258C3.81929 12.1855 3.82175 12.097 3.78437 12.0222L3.03624 10.526C3.0049 10.4633 2.9487 10.4166 2.88132 10.3974L1.16838 9.90797C1.06105 9.87731 0.987061 9.77921 0.987061 9.66759V8.33046C0.987061 8.21884 1.06105 8.12074 1.16838 8.09008L2.85352 7.60861C2.93657 7.58488 3.00149 7.51996 3.02522 7.43691L3.53177 5.66396C3.54896 5.60382 3.54297 5.53942 3.515 5.48347L2.78193 4.01733C2.73381 3.92109 2.75267 3.80484 2.82876 3.72875L3.70918 2.84833C3.7889 2.76861 3.91211 2.75211 4.00999 2.80805L5.72804 3.78979C5.80061 3.83126 5.88911 3.83371 5.96387 3.79633L7.46012 3.04821C7.5228 3.01687 7.56945 2.96066 7.5887 2.89328L8.07811 1.18034C8.10878 1.07302 8.20687 0.999023 8.31849 0.999023H9.65563C9.76725 0.999023 9.86535 1.07302 9.89601 1.18034L10.3854 2.89328C10.4047 2.96066 10.4513 3.01687 10.514 3.04821L12.0102 3.79633C12.085 3.83371 12.1735 3.83126 12.2461 3.78979L13.9641 2.80805C14.062 2.75211 14.1852 2.76861 14.2649 2.84833L15.1378 3.72115C15.2175 3.80086 15.234 3.92407 15.178 4.02196L14.1963 5.74C14.1548 5.81257 14.1524 5.90107 14.1898 5.97584L14.9379 7.47209C14.9692 7.53477 15.0254 7.58141 15.0928 7.60067L16.8057 8.09008C16.9131 8.12074 16.9871 8.21884 16.9871 8.33046V9.66759C16.9871 9.77921 16.9131 9.87731 16.8057 9.90797L15.0928 10.3974C15.0254 10.4166 14.9692 10.4633 14.9379 10.526L14.1898 12.0222C14.1524 12.097 14.1548 12.1855 14.1963 12.258L15.178 13.9761C15.234 14.074 15.2175 14.1972 15.1378 14.2769L14.2649 15.1497C14.1852 15.2294 14.062 15.2459 13.9641 15.19L12.2461 14.2083C12.1735 14.1668 12.085 14.1643 12.0102 14.2017L10.514 14.9498C10.4513 14.9812 10.4047 15.0374 10.3854 15.1048L9.89601 16.8177C9.86535 16.925 9.76725 16.999 9.65563 16.999H8.31849C8.20687 16.999 8.10878 16.925 8.07811 16.8177L7.5887 15.1048C7.56945 15.0374 7.5228 14.9812 7.46012 14.9498Z" stroke="#6B7280" stroke-width="1.5" stroke-linecap="round" stroke-linejoin="round"/>
<circle cx="8.9873" cy="8.99902" r="3.25" stroke="#6B7280" stroke-width="1.5"/>
</svg>
