<svg width="21" height="22" viewBox="0 0 21 22" fill="none" xmlns="http://www.w3.org/2000/svg">
<path d="M4.68457 1L6.26354 2.57897" stroke="#6B7280" stroke-width="2" stroke-linecap="round" stroke-linejoin="round"/>
<path d="M4.15794 2.5791C2.4137 2.5791 1 3.9928 1 5.73704" stroke="#6B7280" stroke-width="2" stroke-linecap="round" stroke-linejoin="round"/>
<path d="M4.1582 2.57857H6.26349" stroke="#6B7280" stroke-width="2" stroke-linecap="round" stroke-linejoin="round"/>
<path d="M14.6846 19.4208L16.2635 17.8418" stroke="#6B7280" stroke-width="2" stroke-linecap="round" stroke-linejoin="round"/>
<path d="M16.2635 20.9999L14.6846 19.4209" stroke="#6B7280" stroke-width="2" stroke-linecap="round" stroke-linejoin="round"/>
<path d="M16.79 19.4211C18.5343 19.4211 19.948 18.0074 19.948 16.2632" stroke="#6B7280" stroke-width="2" stroke-linecap="round" stroke-linejoin="round"/>
<path d="M16.7899 19.4219H14.6846" stroke="#6B7280" stroke-width="2" stroke-linecap="round" stroke-linejoin="round"/>
<path fill-rule="evenodd" clip-rule="evenodd" d="M7.84228 19.4209C11.0265 19.4209 13.6318 16.8156 13.6318 13.6313C13.6318 10.4471 11.0265 7.8418 7.84228 7.8418C4.65803 7.8418 2.05273 10.4471 2.05273 13.6313C2.05273 14.9303 2.49169 16.1293 3.22117 17.0967C4.27908 18.504 5.957 19.4209 7.84228 19.4209Z" stroke="#6B7280" stroke-width="2" stroke-linecap="round" stroke-linejoin="round"/>
<path d="M17.1988 4.27441C19.4505 6.52602 19.4505 10.2103 17.1988 12.4619C17.0188 12.6419 16.822 12.7924 16.623 12.9387" stroke="#6B7280" stroke-width="2" stroke-linecap="round" stroke-linejoin="round"/>
<path d="M17.1994 4.27464C14.9478 2.02304 11.2635 2.02304 9.0119 4.27464C8.83295 4.45359 8.67926 4.64833 8.52979 4.84518" stroke="#6B7280" stroke-width="2" stroke-linecap="round" stroke-linejoin="round"/>
</svg>
