<svg width="21" height="13" viewBox="0 0 21 13" fill="none" xmlns="http://www.w3.org/2000/svg">
<path d="M10.0769 5.60776H11.8745C12.3512 5.60776 12.8085 5.41552 13.1456 5.07333C13.4827 4.73113 13.6721 4.26702 13.6721 3.78308C13.6721 3.29915 13.4827 2.83503 13.1456 2.49284C12.8085 2.15065 12.3512 1.9584 11.8745 1.9584H9.17812C8.63884 1.9584 8.18945 2.14087 7.91981 2.50581L2.88658 7.43244M6.48175 11.0818L7.91981 9.80453C8.18945 9.43959 8.63884 9.25712 9.17812 9.25712H12.7733C13.7619 9.25712 14.6607 8.89219 15.2899 8.16231L19.4243 4.14802C19.7712 3.81531 19.9736 3.35638 19.9871 2.87217C20.0006 2.38797 19.824 1.91816 19.4962 1.5661C19.1685 1.21404 18.7163 1.00856 18.2393 0.994871C17.7623 0.981183 17.2995 1.16041 16.9527 1.49311L13.1777 5.05124M1.98779 6.5201L7.38054 11.9941" stroke="#374151" stroke-width="2" stroke-linecap="round" stroke-linejoin="round"/>
</svg>
