<svg width="155" height="155" viewBox="0 0 155 155" fill="none" xmlns="http://www.w3.org/2000/svg">
<path d="M55.1167 49.7118C107.383 26.4297 103.524 52.5322 113.04 54.2664C156.073 80.5576 158.854 130.277 69.0981 127.837C-7.01119 125.767 18.6566 104.225 27.3419 80.1711C36.6281 54.4529 42.3898 55.3811 55.1167 49.7118Z" fill="#E2F6FF"/>
<path fill-rule="evenodd" clip-rule="evenodd" d="M118.61 116.714C123.109 111.655 125.843 104.99 125.843 97.6872C125.843 81.8698 113.02 69.0474 97.203 69.0474C81.3857 69.0474 68.5632 81.8698 68.5632 97.6872C68.5632 113.504 81.3857 126.327 97.203 126.327C100.666 126.327 103.985 125.712 107.058 124.586L116.028 127.316C117.312 127.708 118.61 126.746 118.61 125.403V116.714Z" fill="#00A8FF"/>
<path d="M118.61 116.714L118.236 116.381L118.11 116.523V116.714H118.61ZM107.058 124.586L107.203 124.108L107.043 124.059L106.885 124.117L107.058 124.586ZM116.028 127.316L115.882 127.795L116.028 127.316ZM125.343 97.6872C125.343 104.863 122.658 111.41 118.236 116.381L118.983 117.046C123.561 111.899 126.343 105.117 126.343 97.6872H125.343ZM97.203 69.5474C112.744 69.5474 125.343 82.146 125.343 97.6872H126.343C126.343 81.5937 113.296 68.5474 97.203 68.5474V69.5474ZM69.0632 97.6872C69.0632 82.146 81.6618 69.5474 97.203 69.5474V68.5474C81.1096 68.5474 68.0632 81.5937 68.0632 97.6872H69.0632ZM97.203 125.827C81.6618 125.827 69.0632 113.228 69.0632 97.6872H68.0632C68.0632 113.781 81.1096 126.827 97.203 126.827V125.827ZM106.885 124.117C103.867 125.223 100.606 125.827 97.203 125.827V126.827C100.725 126.827 104.103 126.202 107.23 125.056L106.885 124.117ZM116.173 126.838L107.203 124.108L106.912 125.065L115.882 127.795L116.173 126.838ZM118.11 125.403C118.11 126.41 117.137 127.131 116.173 126.838L115.882 127.795C117.488 128.284 119.11 127.082 119.11 125.403H118.11ZM118.11 116.714V125.403H119.11V116.714H118.11Z" fill="#0F1010"/>
<g opacity="0.6" filter="url(#filter0_f_4208_36498)">
<circle cx="29.0271" cy="29.0271" r="28.2669" transform="matrix(-1 0 0 1 126.617 69.0474)" stroke="url(#paint0_linear_4208_36498)" stroke-width="1.52028"/>
</g>
<g filter="url(#filter1_d_4208_36498)">
<path fill-rule="evenodd" clip-rule="evenodd" d="M39.8408 97.8008C34.67 91.9873 31.5288 84.3284 31.5288 75.9359C31.5288 57.7589 46.2642 43.0234 64.4413 43.0234C82.6183 43.0234 97.3538 57.7589 97.3538 75.9359C97.3538 94.113 82.6183 108.848 64.4413 108.848C60.4622 108.848 56.648 108.142 53.1172 106.848L42.8084 109.986C41.3319 110.435 39.8408 109.331 39.8408 107.787V97.8008Z" fill="#DEE0E6"/>
<path d="M39.8408 97.8008L40.4012 97.3024L40.5908 97.5155V97.8008H39.8408ZM53.1172 106.848L52.8988 106.131L53.1392 106.058L53.3752 106.144L53.1172 106.848ZM42.8084 109.986L43.0268 110.703H43.0268L42.8084 109.986ZM32.2788 75.9359C32.2788 84.1377 35.3478 91.6208 40.4012 97.3024L39.2804 98.2993C33.9922 92.3537 30.7788 84.5192 30.7788 75.9359H32.2788ZM64.4413 43.7734C46.6784 43.7734 32.2788 58.1731 32.2788 75.9359H30.7788C30.7788 57.3446 45.85 42.2734 64.4413 42.2734V43.7734ZM96.6038 75.9359C96.6038 58.1731 82.2041 43.7734 64.4413 43.7734V42.2734C83.0325 42.2734 98.1038 57.3446 98.1038 75.9359H96.6038ZM64.4413 108.098C82.2041 108.098 96.6038 93.6988 96.6038 75.9359H98.1038C98.1038 94.5272 83.0325 109.598 64.4413 109.598V108.098ZM53.3752 106.144C56.8246 107.408 60.5515 108.098 64.4413 108.098V109.598C60.3728 109.598 56.4714 108.876 52.8591 107.553L53.3752 106.144ZM42.59 109.268L52.8988 106.131L53.3356 107.566L43.0268 110.703L42.59 109.268ZM40.5908 107.787C40.5908 108.827 41.5953 109.571 42.59 109.268L43.0268 110.703C41.0684 111.299 39.0908 109.834 39.0908 107.787H40.5908ZM40.5908 97.8008V107.787H39.0908V97.8008H40.5908Z" fill="#0F1010"/>
</g>
<circle cx="31.0289" cy="31.0289" r="31.0289" transform="matrix(-1 0 0 1 96.5891 46.0264)" fill="#DEE0E6"/>
<g opacity="0.5" filter="url(#filter2_f_4208_36498)">
<path d="M32.3907 75.9359C32.3907 93.637 46.7402 107.987 64.4413 107.987C82.1423 107.987 96.4919 93.637 96.4919 75.9359C96.4919 58.2349 82.1423 43.8853 64.4413 43.8853C46.7402 43.8853 32.3907 58.2349 32.3907 75.9359Z" stroke="url(#paint1_linear_4208_36498)" stroke-width="1.72378"/>
</g>
<path d="M41.7425 36.5552L38.5596 25.7982M35.1017 40.4701L23.6864 28.2494M30.7842 45.6472L20.2285 42.9212" stroke="#00A8FF" stroke-width="3.73587" stroke-linecap="round" stroke-linejoin="round"/>
<defs>
<filter id="filter0_f_4208_36498" x="65.102" y="65.5862" width="64.9766" height="64.9766" filterUnits="userSpaceOnUse" color-interpolation-filters="sRGB">
<feFlood flood-opacity="0" result="BackgroundImageFix"/>
<feBlend mode="normal" in="SourceGraphic" in2="BackgroundImageFix" result="shape"/>
<feGaussianBlur stdDeviation="1.73059" result="effect1_foregroundBlur_4208_36498"/>
</filter>
<filter id="filter1_d_4208_36498" x="20.7788" y="33.2734" width="87.325" height="88.5642" filterUnits="userSpaceOnUse" color-interpolation-filters="sRGB">
<feFlood flood-opacity="0" result="BackgroundImageFix"/>
<feColorMatrix in="SourceAlpha" type="matrix" values="0 0 0 0 0 0 0 0 0 0 0 0 0 0 0 0 0 0 127 0" result="hardAlpha"/>
<feOffset dy="1"/>
<feGaussianBlur stdDeviation="5"/>
<feComposite in2="hardAlpha" operator="out"/>
<feColorMatrix type="matrix" values="0 0 0 0 0 0 0 0 0 0 0 0 0 0 0 0 0 0 0.1 0"/>
<feBlend mode="normal" in2="BackgroundImageFix" result="effect1_dropShadow_4208_36498"/>
<feBlend mode="normal" in="SourceGraphic" in2="effect1_dropShadow_4208_36498" result="shape"/>
</filter>
<filter id="filter2_f_4208_36498" x="27.6043" y="39.099" width="73.6739" height="73.6739" filterUnits="userSpaceOnUse" color-interpolation-filters="sRGB">
<feFlood flood-opacity="0" result="BackgroundImageFix"/>
<feBlend mode="normal" in="SourceGraphic" in2="BackgroundImageFix" result="shape"/>
<feGaussianBlur stdDeviation="1.96224" result="effect1_foregroundBlur_4208_36498"/>
</filter>
<linearGradient id="paint0_linear_4208_36498" x1="11.5107" y1="49.5462" x2="49.5462" y2="37.535" gradientUnits="userSpaceOnUse">
<stop offset="0.532954" stop-opacity="0"/>
<stop offset="0.963673" stop-color="#666666"/>
</linearGradient>
<linearGradient id="paint1_linear_4208_36498" x1="85.5791" y1="89.5668" x2="40.5371" y2="62.5416" gradientUnits="userSpaceOnUse">
<stop offset="0.532954" stop-opacity="0"/>
<stop offset="0.963673" stop-color="#666666"/>
</linearGradient>
</defs>
</svg>
