<svg width="24" height="24" viewBox="0 0 24 24" fill="none" xmlns="http://www.w3.org/2000/svg">
<g clip-path="url(#clip0_4455_36767)">
<g clip-path="url(#clip1_4455_36767)">
<path d="M5.14158 11.9994L8.32025 11.9991C9.51035 11.999 10.4748 11.0344 10.4747 9.84427C10.4747 9.27284 10.2476 8.72429 9.84375 8.32052L7.97311 6.4502" stroke="#111827" stroke-width="1.5" stroke-linecap="round" stroke-linejoin="round"/>
<path d="M16.7934 16.9039L15.4393 14.8735C15.194 14.5056 14.7818 14.2846 14.3399 14.2847V14.2847C13.8393 14.2847 13.3821 14.0021 13.1581 13.5541L13.0567 13.3515C12.8708 12.9797 12.8708 12.5416 13.0566 12.1697L13.9197 10.4432C14.1429 9.99594 14.6008 9.71324 15.1014 9.71319L18.4598 9.71291" stroke="#111827" stroke-width="1.5" stroke-linecap="round" stroke-linejoin="round"/>
<circle cx="12.0012" cy="11.9991" r="7.25" stroke="#111827" stroke-width="1.5"/>
</g>
</g>
<defs>
<clipPath id="clip0_4455_36767">
<rect width="24" height="24" fill="white"/>
</clipPath>
<clipPath id="clip1_4455_36767">
<rect width="24" height="24" fill="white"/>
</clipPath>
</defs>
</svg>
