<svg width="17" height="18" viewBox="0 0 17 18" fill="none" xmlns="http://www.w3.org/2000/svg">
<path fill-rule="evenodd" clip-rule="evenodd" d="M7.96998 1.96298L2.07773 7.0135L2.07382 7.01685L2.07381 7.01684C1.97002 7.10457 1.88662 7.21389 1.82943 7.33718C1.77224 7.46046 1.74263 7.59474 1.74268 7.73064L1.74268 7.73082L1.74332 15.31C1.74334 15.5578 1.84179 15.7954 2.01701 15.9706C2.19223 16.1458 2.42987 16.2442 2.67765 16.2442L5.29617 16.2439L5.29566 10.2569C5.29562 9.83464 5.46333 9.42967 5.76189 9.13106C6.06044 8.83245 6.46539 8.66468 6.88765 8.66464L10.2562 8.66435C10.6784 8.66432 11.0834 8.83203 11.382 9.13058C11.6806 9.42914 11.8484 9.83409 11.8484 10.2563L11.8489 16.2434L14.4675 16.2432C14.7152 16.2431 14.9529 16.1447 15.128 15.9695C15.3032 15.7942 15.4016 15.5566 15.4016 15.3088L15.401 7.72966V7.72948C15.401 7.59358 15.3714 7.45931 15.3142 7.33604C15.257 7.21276 15.1735 7.10345 15.0697 7.01574L15.0658 7.01241L15.0658 7.0124L9.17273 1.9629C9.00435 1.82129 8.79138 1.74363 8.57132 1.74365C8.35128 1.74367 8.13833 1.82136 7.96998 1.96298ZM10.3489 16.2435L10.3484 10.2565C10.3484 10.232 10.3387 10.2086 10.3214 10.1913C10.3042 10.1741 10.2807 10.1644 10.2563 10.1644L6.88778 10.1646C6.86335 10.1646 6.83991 10.1743 6.82264 10.1916C6.80536 10.2089 6.79566 10.2323 6.79566 10.2568L6.79617 16.2438L10.3489 16.2435ZM6.04629 17.7439L11.0991 17.7434L14.4676 17.7432C15.1132 17.7431 15.7323 17.4866 16.1888 17.03C16.6453 16.5735 16.9017 15.9543 16.9016 15.3087L16.901 7.72971C16.901 7.72965 16.901 7.72959 16.901 7.72953C16.901 7.3755 16.8238 7.02571 16.6748 6.70457C16.5261 6.38422 16.3095 6.10008 16.04 5.87184L10.1465 0.821925L10.1465 0.821911L10.1426 0.818587C9.70316 0.44729 9.14646 0.243604 8.5712 0.243652C7.99593 0.243701 7.43927 0.447481 6.99993 0.818854L6.99992 0.81884L6.99601 0.822192L1.1033 5.87311C0.833872 6.1014 0.617333 6.38558 0.468716 6.70594C0.319727 7.02711 0.242587 7.37691 0.242676 7.73095C0.242676 7.73101 0.242676 7.73107 0.242676 7.73113L0.243318 15.3101C0.243373 15.9557 0.499891 16.5748 0.956441 17.0313C1.41299 17.4878 2.03218 17.7442 2.67778 17.7442L6.04629 17.7439Z" fill="#6B7280"/>
</svg>
