<svg width="18" height="18" viewBox="0 0 18 18" fill="none" xmlns="http://www.w3.org/2000/svg">
<path fill-rule="evenodd" clip-rule="evenodd" d="M1 4.55556C1 2.59188 2.59188 1 4.55556 1H13.4444C15.4081 1 17 2.59188 17 4.55556V13.4444C17 15.4081 15.4081 17 13.4444 17H4.55556C2.59188 17 1 15.4081 1 13.4444V4.55556Z" stroke="#374151" stroke-width="1.5" stroke-linecap="round" stroke-linejoin="round"/>
<path fill-rule="evenodd" clip-rule="evenodd" d="M4.99886 6.33366C5.73524 6.33366 6.33219 5.7367 6.33219 5.00033C6.33219 4.26395 5.73524 3.66699 4.99886 3.66699C4.26248 3.66699 3.66553 4.26395 3.66553 5.00033C3.66553 5.7367 4.26248 6.33366 4.99886 6.33366Z" stroke="#374151" stroke-width="1.5" stroke-linecap="round" stroke-linejoin="round"/>
<path d="M1.31323 14.906L5.07323 11.146C5.76745 10.452 6.89279 10.452 7.58701 11.146L13.291 16.85" stroke="#374151" stroke-width="1.5" stroke-linecap="round" stroke-linejoin="round"/>
<path d="M9.88696 12.3918L13.647 8.63184C14.3412 7.93783 15.4665 7.93783 16.1607 8.63184L16.9951 9.44411" stroke="#374151" stroke-width="1.5" stroke-linecap="round" stroke-linejoin="round"/>
</svg>
