<svg width="20" height="18" viewBox="0 0 20 18" fill="none" xmlns="http://www.w3.org/2000/svg">
<path fill-rule="evenodd" clip-rule="evenodd" d="M2.76065 1.74959C2.19261 1.74964 1.73286 2.20947 1.73291 2.7775L1.73291 2.80702C1.73295 3.19838 1.94994 3.55825 2.29727 3.74163C2.29735 3.74167 2.29743 3.74171 2.29751 3.74175L7.67602 6.57398L7.67618 6.57406C8.49476 7.00536 9.47247 7.00533 10.2912 6.5745L15.6846 3.73322L15.6846 3.73321C16.0157 3.55878 16.2255 3.21783 16.2331 2.84457L16.2331 2.80579C16.2331 2.22154 15.7599 1.74849 15.1761 1.74854L2.76065 1.74959ZM17.7331 2.80063C17.7303 1.3907 16.587 0.248416 15.176 0.248535L2.76052 0.249587C1.36406 0.249706 0.232792 1.38117 0.23291 2.77763L0.232913 2.80714L0.233588 10.778C0.233748 12.6652 1.76348 14.1946 3.65062 14.1945L10.1593 14.1939C10.363 14.994 10.777 15.7514 11.4014 16.3778L11.4015 16.3779C13.2245 18.2059 16.3007 18.2058 18.1227 16.3772L18.1228 16.3771C19.975 14.5172 19.975 11.5033 18.1212 9.64445C17.997 9.51982 17.8676 9.40354 17.7337 9.29561L17.7331 2.85649C17.7333 2.84542 17.7334 2.83434 17.7334 2.82326L17.7334 2.82326L17.7333 2.81399L17.7331 2.80063ZM16.2333 5.13954L10.99 7.90176L10.9897 7.90191C9.73379 8.56284 8.23322 8.56302 6.97697 7.90113L1.73311 5.13981L1.73359 10.7779C1.73368 11.8366 2.59178 12.6946 3.65049 12.6945L10.0219 12.6939C10.0955 11.5833 10.5556 10.4937 11.4018 9.64487C12.7085 8.33367 14.5882 7.94607 16.2336 8.48212L16.2333 5.13954ZM11.5362 13.4154C11.5349 13.3799 11.5311 13.345 11.525 13.311C11.44 12.3789 11.7531 11.4171 12.4641 10.7039L12.4642 10.7038C13.7329 9.43062 15.79 9.43044 17.0588 10.7034L17.059 10.7035C18.329 11.9769 18.3293 14.044 17.06 15.3186C15.8243 16.5586 13.7007 16.559 12.4637 15.3189C11.9313 14.7847 11.6222 14.1113 11.5362 13.4154ZM13.467 11.4649C13.7599 11.172 14.2347 11.172 14.5276 11.4648L14.9974 11.9345L15.467 11.4648C15.7599 11.1718 16.2347 11.1718 16.5276 11.4647C16.8206 11.7575 16.8206 12.2324 16.5277 12.5253L16.0581 12.995L16.5278 13.4647C16.8207 13.7575 16.8208 14.2324 16.5279 14.5253C16.235 14.8183 15.7602 14.8183 15.4672 14.5254L14.9975 14.0558L14.5279 14.5255C14.235 14.8184 13.7602 14.8185 13.4672 14.5256C13.1743 14.2327 13.1743 13.7578 13.4672 13.4649L13.9368 12.9952L13.4671 12.5256C13.1742 12.2327 13.1741 11.7578 13.467 11.4649Z" fill="#374151"/>
<path fill-rule="evenodd" clip-rule="evenodd" d="M2.76065 1.74959C2.19261 1.74964 1.73286 2.20947 1.73291 2.7775L1.73291 2.80702C1.73295 3.19838 1.94994 3.55825 2.29727 3.74163C2.29735 3.74167 2.29743 3.74171 2.29751 3.74175L7.67602 6.57398L7.67618 6.57406C8.49476 7.00536 9.47247 7.00533 10.2912 6.5745L15.6846 3.73322L15.6846 3.73321C16.0157 3.55878 16.2255 3.21783 16.2331 2.84457L16.2331 2.80579C16.2331 2.22154 15.7599 1.74849 15.1761 1.74854L2.76065 1.74959ZM17.7331 2.80063C17.7303 1.3907 16.587 0.248416 15.176 0.248535L2.76052 0.249587C1.36406 0.249706 0.232792 1.38117 0.23291 2.77763L0.232913 2.80714L0.233588 10.778C0.233748 12.6652 1.76348 14.1946 3.65062 14.1945L10.1593 14.1939C10.363 14.994 10.777 15.7514 11.4014 16.3778L11.4015 16.3779C13.2245 18.2059 16.3007 18.2058 18.1227 16.3772L18.1228 16.3771C19.975 14.5172 19.975 11.5033 18.1212 9.64445C17.997 9.51982 17.8676 9.40354 17.7337 9.29561L17.7331 2.85649C17.7333 2.84542 17.7334 2.83434 17.7334 2.82326L17.7334 2.82326L17.7333 2.81399L17.7331 2.80063ZM16.2333 5.13954L10.99 7.90176L10.9897 7.90191C9.73379 8.56284 8.23322 8.56302 6.97697 7.90113L1.73311 5.13981L1.73359 10.7779C1.73368 11.8366 2.59178 12.6946 3.65049 12.6945L10.0219 12.6939C10.0955 11.5833 10.5556 10.4937 11.4018 9.64487C12.7085 8.33367 14.5882 7.94607 16.2336 8.48212L16.2333 5.13954ZM11.5362 13.4154C11.5349 13.3799 11.5311 13.345 11.525 13.311C11.44 12.3789 11.7531 11.4171 12.4641 10.7039L12.4642 10.7038C13.7329 9.43062 15.79 9.43044 17.0588 10.7034L17.059 10.7035C18.329 11.9769 18.3293 14.044 17.06 15.3186C15.8243 16.5586 13.7007 16.559 12.4637 15.3189C11.9313 14.7847 11.6222 14.1113 11.5362 13.4154ZM13.467 11.4649C13.7599 11.172 14.2347 11.172 14.5276 11.4648L14.9974 11.9345L15.467 11.4648C15.7599 11.1718 16.2347 11.1718 16.5276 11.4647C16.8206 11.7575 16.8206 12.2324 16.5277 12.5253L16.0581 12.995L16.5278 13.4647C16.8207 13.7575 16.8208 14.2324 16.5279 14.5253C16.235 14.8183 15.7602 14.8183 15.4672 14.5254L14.9975 14.0558L14.5279 14.5255C14.235 14.8184 13.7602 14.8185 13.4672 14.5256C13.1743 14.2327 13.1743 13.7578 13.4672 13.4649L13.9368 12.9952L13.4671 12.5256C13.1742 12.2327 13.1741 11.7578 13.467 11.4649Z" fill="black" fill-opacity="0.2"/>
</svg>
