<svg width="18" height="14" viewBox="0 0 18 14" fill="none" xmlns="http://www.w3.org/2000/svg">
<path fill-rule="evenodd" clip-rule="evenodd" d="M1.73145 3.56752C1.73145 2.56145 2.5468 1.74609 3.55287 1.74609H13.8386C14.8447 1.74609 15.66 2.56145 15.66 3.56752V3.67508H1.73145V3.56752ZM0.231445 4.42508V3.56752C0.231445 1.73302 1.71837 0.246094 3.55287 0.246094H13.8386C15.6731 0.246094 17.16 1.73302 17.16 3.56752V4.42508V10.4247C17.16 12.2592 15.6731 13.7461 13.8386 13.7461H3.55287C1.71837 13.7461 0.231445 12.2592 0.231445 10.4247V4.42508ZM15.66 5.17508V10.4247C15.66 11.4307 14.8447 12.2461 13.8386 12.2461H3.55287C2.5468 12.2461 1.73145 11.4307 1.73145 10.4247V5.17508H15.66ZM3.66002 7.85324C3.66002 7.43902 3.9958 7.10324 4.41002 7.10324H6.61287C7.02709 7.10324 7.36287 7.43902 7.36287 7.85324C7.36287 8.26745 7.02709 8.60324 6.61287 8.60324H4.41002C3.9958 8.60324 3.66002 8.26745 3.66002 7.85324Z" fill="#374151"/>
</svg>
