<svg width="13" height="18" viewBox="0 0 13 18" fill="none" xmlns="http://www.w3.org/2000/svg">
<path fill-rule="evenodd" clip-rule="evenodd" d="M10.6005 2.04996C10.1992 1.64866 9.5485 1.64872 9.14721 2.05008C8.74592 2.45144 8.74597 3.10211 9.14733 3.5034C9.54869 3.90469 10.1994 3.90464 10.6007 3.50328C11.0019 3.10192 11.0019 2.45124 10.6005 2.04996ZM11.6611 0.989205C12.6483 1.97623 12.6484 3.57665 11.6614 4.56385C10.6744 5.55104 9.07395 5.55118 8.08676 4.56415C7.09956 3.57713 7.09943 1.9767 8.08646 0.989508C9.07348 0.00231347 10.6739 0.00217829 11.6611 0.989205ZM3.66721 14.7764C3.66718 14.3621 4.00293 14.0263 4.41715 14.0263L6.41701 14.0261C6.83122 14.0261 7.16704 14.3619 7.16707 14.7761C7.16711 15.1903 6.83135 15.5261 6.41713 15.5261L4.41727 15.5263C4.00306 15.5263 3.66725 15.1906 3.66721 14.7764ZM1.7356 4.55524C1.73555 3.9873 2.19522 3.52754 2.76316 3.5275L5.42964 3.52727C5.84385 3.52724 6.17961 3.19142 6.17958 2.77721C6.17954 2.36299 5.84373 2.02724 5.42951 2.02727L2.76303 2.0275C1.36667 2.02761 0.235477 3.159 0.235596 4.55536L0.2365 15.2213C0.236618 16.6177 1.368 17.7488 2.76437 17.7487L8.09733 17.7483C9.49369 17.7482 10.6249 16.6168 10.6248 15.2204L10.6241 7.22096C10.6241 6.80675 10.2882 6.47099 9.87402 6.47103C9.45981 6.47106 9.12405 6.80688 9.12409 7.22109L9.12477 15.2205C9.12481 15.7885 8.66514 16.2482 8.0972 16.2483L2.76424 16.2487C2.1963 16.2488 1.73655 15.7891 1.7365 15.2212L1.7356 4.55524Z" fill="#374151"/>
<path fill-rule="evenodd" clip-rule="evenodd" d="M10.6005 2.04996C10.1992 1.64866 9.5485 1.64872 9.14721 2.05008C8.74592 2.45144 8.74597 3.10211 9.14733 3.5034C9.54869 3.90469 10.1994 3.90464 10.6007 3.50328C11.0019 3.10192 11.0019 2.45124 10.6005 2.04996ZM11.6611 0.989205C12.6483 1.97623 12.6484 3.57665 11.6614 4.56385C10.6744 5.55104 9.07395 5.55118 8.08676 4.56415C7.09956 3.57713 7.09943 1.9767 8.08646 0.989508C9.07348 0.00231347 10.6739 0.00217829 11.6611 0.989205ZM3.66721 14.7764C3.66718 14.3621 4.00293 14.0263 4.41715 14.0263L6.41701 14.0261C6.83122 14.0261 7.16704 14.3619 7.16707 14.7761C7.16711 15.1903 6.83135 15.5261 6.41713 15.5261L4.41727 15.5263C4.00306 15.5263 3.66725 15.1906 3.66721 14.7764ZM1.7356 4.55524C1.73555 3.9873 2.19522 3.52754 2.76316 3.5275L5.42964 3.52727C5.84385 3.52724 6.17961 3.19142 6.17958 2.77721C6.17954 2.36299 5.84373 2.02724 5.42951 2.02727L2.76303 2.0275C1.36667 2.02761 0.235477 3.159 0.235596 4.55536L0.2365 15.2213C0.236618 16.6177 1.368 17.7488 2.76437 17.7487L8.09733 17.7483C9.49369 17.7482 10.6249 16.6168 10.6248 15.2204L10.6241 7.22096C10.6241 6.80675 10.2882 6.47099 9.87402 6.47103C9.45981 6.47106 9.12405 6.80688 9.12409 7.22109L9.12477 15.2205C9.12481 15.7885 8.66514 16.2482 8.0972 16.2483L2.76424 16.2487C2.1963 16.2488 1.73655 15.7891 1.7365 15.2212L1.7356 4.55524Z" fill="black" fill-opacity="0.2"/>
</svg>
