<svg width="19" height="18" viewBox="0 0 19 18" fill="none" xmlns="http://www.w3.org/2000/svg">
<mask id="path-1-inside-1_9276_32036" fill="white">
<path fill-rule="evenodd" clip-rule="evenodd" d="M10.0114 10.3555L12.7211 13.0652C13.3603 13.7043 14.0444 13.8664 14.8637 13.8664L11.5148 17.2063C11.0084 17.712 10.322 17.9961 9.60626 17.9961C8.89057 17.9961 8.20414 17.712 7.69776 17.2063L4.35788 13.8754C5.93381 13.8754 6.41782 13.3911 6.72436 13.0843L6.73451 13.0742L9.45322 10.3555C9.55225 10.2564 9.66928 10.2384 9.7323 10.2384C9.79531 10.2384 9.91234 10.2564 10.0114 10.3555ZM9.45322 7.63673L6.73451 4.91802C6.72854 4.91205 6.72248 4.90598 6.71632 4.8998C6.43416 4.61687 5.93545 4.11681 4.38488 4.11681L7.72477 0.785927C8.23115 0.280171 8.91758 -0.00390625 9.63327 -0.00390625C10.349 -0.00390625 11.0354 0.280171 11.5418 0.785927L14.8907 4.12581C14.0714 4.12581 13.3422 4.27885 12.7031 4.94502L10.0114 7.63673C9.93935 7.70875 9.83132 7.75377 9.7323 7.75377C9.63327 7.75377 9.52524 7.70875 9.45322 7.63673ZM16.1571 5.02599L18.1826 7.06053C18.6957 7.57104 18.9857 8.26402 18.9891 8.98782C18.9924 9.71162 18.7089 10.4073 18.2006 10.9225L16.1751 12.9571H15.0408C14.5457 12.9571 14.0775 12.759 13.7354 12.4169L11.0257 9.70723C10.7737 9.45516 10.4406 9.32913 10.1075 9.32913C9.77439 9.32913 9.4413 9.45516 9.18924 9.70723L6.47052 12.4259C6.11943 12.768 5.6513 12.9661 5.16517 12.9661H3.83282L1.77128 10.8955C1.26552 10.3892 0.981445 9.70273 0.981445 8.98704C0.981445 8.27134 1.26552 7.58492 1.77128 7.07853L3.83282 5.00799H5.15617C5.6513 5.00799 6.11943 5.20604 6.46152 5.54813L9.18023 8.27585C9.42718 8.51394 9.75548 8.64912 10.0985 8.65395C10.4316 8.65395 10.7647 8.52791 11.0167 8.27585L13.7174 5.57514C14.0505 5.22404 14.5366 5.02599 15.0228 5.02599H16.1571Z"/>
</mask>
<path fill-rule="evenodd" clip-rule="evenodd" d="M10.0114 10.3555L12.7211 13.0652C13.3603 13.7043 14.0444 13.8664 14.8637 13.8664L11.5148 17.2063C11.0084 17.712 10.322 17.9961 9.60626 17.9961C8.89057 17.9961 8.20414 17.712 7.69776 17.2063L4.35788 13.8754C5.93381 13.8754 6.41782 13.3911 6.72436 13.0843L6.73451 13.0742L9.45322 10.3555C9.55225 10.2564 9.66928 10.2384 9.7323 10.2384C9.79531 10.2384 9.91234 10.2564 10.0114 10.3555ZM9.45322 7.63673L6.73451 4.91802C6.72854 4.91205 6.72248 4.90598 6.71632 4.8998C6.43416 4.61687 5.93545 4.11681 4.38488 4.11681L7.72477 0.785927C8.23115 0.280171 8.91758 -0.00390625 9.63327 -0.00390625C10.349 -0.00390625 11.0354 0.280171 11.5418 0.785927L14.8907 4.12581C14.0714 4.12581 13.3422 4.27885 12.7031 4.94502L10.0114 7.63673C9.93935 7.70875 9.83132 7.75377 9.7323 7.75377C9.63327 7.75377 9.52524 7.70875 9.45322 7.63673ZM16.1571 5.02599L18.1826 7.06053C18.6957 7.57104 18.9857 8.26402 18.9891 8.98782C18.9924 9.71162 18.7089 10.4073 18.2006 10.9225L16.1751 12.9571H15.0408C14.5457 12.9571 14.0775 12.759 13.7354 12.4169L11.0257 9.70723C10.7737 9.45516 10.4406 9.32913 10.1075 9.32913C9.77439 9.32913 9.4413 9.45516 9.18924 9.70723L6.47052 12.4259C6.11943 12.768 5.6513 12.9661 5.16517 12.9661H3.83282L1.77128 10.8955C1.26552 10.3892 0.981445 9.70273 0.981445 8.98704C0.981445 8.27134 1.26552 7.58492 1.77128 7.07853L3.83282 5.00799H5.15617C5.6513 5.00799 6.11943 5.20604 6.46152 5.54813L9.18023 8.27585C9.42718 8.51394 9.75548 8.64912 10.0985 8.65395C10.4316 8.65395 10.7647 8.52791 11.0167 8.27585L13.7174 5.57514C14.0505 5.22404 14.5366 5.02599 15.0228 5.02599H16.1571Z" fill="white"/>
<path d="M12.7211 13.0652L11.6604 14.1258L11.6604 14.1258L12.7211 13.0652ZM14.8637 13.8664L15.9229 14.9285L18.4919 12.3664H14.8637V13.8664ZM11.5148 17.2063L10.4555 16.1442L10.4548 16.1449L11.5148 17.2063ZM7.69776 17.2063L8.75776 16.1449L8.75699 16.1442L7.69776 17.2063ZM4.35788 13.8754V12.3754H0.729635L3.29865 14.9375L4.35788 13.8754ZM6.72436 13.0843L5.6635 12.0239L5.66336 12.024L6.72436 13.0843ZM6.73451 13.0742L5.67385 12.0135L5.67365 12.0137L6.73451 13.0742ZM6.73451 4.91802L7.79517 3.85736L7.79517 3.85736L6.73451 4.91802ZM9.45322 7.63673L8.39256 8.69739L8.39256 8.69739L9.45322 7.63673ZM6.71632 4.8998L7.77846 3.84062L7.77842 3.84058L6.71632 4.8998ZM4.38488 4.11681L3.32566 3.05472L0.756642 5.61681H4.38488V4.11681ZM7.72477 0.785927L8.78399 1.84802L8.78476 1.84725L7.72477 0.785927ZM11.5418 0.785927L10.4818 1.84725L10.4825 1.84801L11.5418 0.785927ZM14.8907 4.12581V5.62581H18.5189L15.9499 3.06372L14.8907 4.12581ZM12.7031 4.94502L13.7637 6.00568L13.7747 5.99471L13.7855 5.98352L12.7031 4.94502ZM10.0114 7.63673L8.95071 6.57607L8.95071 6.57607L10.0114 7.63673ZM18.1826 7.06053L17.1196 8.11885L17.1246 8.12387L18.1826 7.06053ZM16.1571 5.02599L17.2201 3.96769L16.7803 3.52599H16.1571V5.02599ZM18.9891 8.98782L20.489 8.98083L20.489 8.98082L18.9891 8.98782ZM18.2006 10.9225L19.2636 11.9809L19.2684 11.976L18.2006 10.9225ZM16.1751 12.9571V14.4571H16.7983L17.2381 14.0154L16.1751 12.9571ZM13.7354 12.4169L14.7961 11.3563L14.7961 11.3563L13.7354 12.4169ZM11.0257 9.70723L9.96506 10.7679L9.96506 10.7679L11.0257 9.70723ZM6.47052 12.4259L7.51732 13.5003L7.52429 13.4935L7.53118 13.4866L6.47052 12.4259ZM3.83282 12.9661L2.76985 14.0244L3.20959 14.4661H3.83282V12.9661ZM1.77128 10.8955L2.83425 9.83719L2.8326 9.83554L1.77128 10.8955ZM1.77128 7.07853L2.8326 8.13853L2.83425 8.13688L1.77128 7.07853ZM3.83282 5.00799V3.50799H3.20959L2.76985 3.94964L3.83282 5.00799ZM6.46152 5.54813L7.52393 4.48922L7.52218 4.48747L6.46152 5.54813ZM9.18023 8.27585L8.11782 9.33475L8.12837 9.34533L8.13912 9.3557L9.18023 8.27585ZM10.0985 8.65395L10.0774 10.1538L10.0879 10.1539H10.0985V8.65395ZM11.0167 8.27585L12.0774 9.33651L12.0774 9.33651L11.0167 8.27585ZM13.7174 5.57514L14.7781 6.6358L14.792 6.62184L14.8056 6.60752L13.7174 5.57514ZM13.7817 12.0045L11.072 9.29479L8.95071 11.4161L11.6604 14.1258L13.7817 12.0045ZM14.8637 12.3664C14.2924 12.3664 14.0489 12.2717 13.7817 12.0045L11.6604 14.1258C12.6716 15.137 13.7964 15.3664 14.8637 15.3664V12.3664ZM12.574 18.2683L15.9229 14.9285L13.8044 12.8043L10.4555 16.1442L12.574 18.2683ZM9.60626 19.4961C10.7195 19.4961 11.7871 19.0542 12.5748 18.2676L10.4548 16.1449C10.2296 16.3698 9.92445 16.4961 9.60626 16.4961V19.4961ZM6.63776 18.2676C7.42539 19.0542 8.49307 19.4961 9.60626 19.4961V16.4961C9.28807 16.4961 8.98289 16.3698 8.75776 16.1449L6.63776 18.2676ZM3.29865 14.9375L6.63853 18.2684L8.75699 16.1442L5.41711 12.8133L3.29865 14.9375ZM5.66336 12.024C5.53742 12.15 5.49938 12.1832 5.40452 12.2257C5.28931 12.2772 4.99506 12.3754 4.35788 12.3754V15.3754C5.29663 15.3754 6.03235 15.2314 6.62975 14.9641C7.24752 14.6877 7.60476 14.3254 7.78536 14.1446L5.66336 12.024ZM5.67365 12.0137L5.6635 12.0239L7.78522 14.1448L7.79537 14.1346L5.67365 12.0137ZM8.39256 9.29479L5.67385 12.0135L7.79517 14.1348L10.5139 11.4161L8.39256 9.29479ZM9.7323 8.73842C9.42097 8.73842 8.86341 8.82394 8.39256 9.29479L10.5139 11.4161C10.2411 11.6889 9.91759 11.7384 9.7323 11.7384V8.73842ZM11.072 9.29479C10.6012 8.82394 10.0436 8.73842 9.7323 8.73842V11.7384C9.547 11.7384 9.22351 11.6889 8.95071 11.4161L11.072 9.29479ZM5.67385 5.97868L8.39256 8.69739L10.5139 6.57607L7.79517 3.85736L5.67385 5.97868ZM5.65419 5.95898C5.66023 5.96504 5.66702 5.97185 5.67385 5.97868L7.79517 3.85736C7.79006 3.85225 7.78474 3.84691 7.77846 3.84062L5.65419 5.95898ZM4.38488 5.61681C4.99954 5.61681 5.29078 5.71572 5.4069 5.76837C5.50523 5.81295 5.54415 5.84865 5.65423 5.95902L7.77842 3.84058C7.60633 3.66802 7.25481 3.31223 6.64561 3.03604C6.05418 2.76792 5.32079 2.61681 4.38488 2.61681V5.61681ZM6.66554 -0.276164L3.32566 3.05472L5.44411 5.1789L8.78399 1.84802L6.66554 -0.276164ZM9.63327 -1.50391C8.52008 -1.50391 7.4524 -1.06205 6.66477 -0.275394L8.78476 1.84725C9.0099 1.62239 9.31508 1.49609 9.63327 1.49609V-1.50391ZM12.6018 -0.275394C11.8141 -1.06205 10.7465 -1.50391 9.63327 -1.50391V1.49609C9.95146 1.49609 10.2566 1.62239 10.4818 1.84725L12.6018 -0.275394ZM15.9499 3.06372L12.601 -0.27616L10.4825 1.84801L13.8314 5.1879L15.9499 3.06372ZM13.7855 5.98352C14.0312 5.72742 14.2866 5.62581 14.8907 5.62581V2.62581C13.8562 2.62581 12.6533 2.83028 11.6207 3.90653L13.7855 5.98352ZM11.072 8.69739L13.7637 6.00568L11.6424 3.88436L8.95071 6.57607L11.072 8.69739ZM9.7323 9.25377C10.2372 9.25377 10.7245 9.04496 11.072 8.69739L8.95071 6.57607C9.06518 6.4616 9.18828 6.38651 9.30275 6.3386C9.41662 6.29093 9.56118 6.25377 9.7323 6.25377V9.25377ZM8.39256 8.69739C8.74013 9.04496 9.22738 9.25377 9.7323 9.25377V6.25377C9.90341 6.25377 10.048 6.29093 10.1618 6.3386C10.2763 6.38651 10.3994 6.4616 10.5139 6.57607L8.39256 8.69739ZM19.2456 6.00222L17.2201 3.96769L15.0941 6.0843L17.1196 8.11883L19.2456 6.00222ZM20.489 8.98082C20.4838 7.86032 20.0349 6.78751 19.2406 5.99718L17.1246 8.12387C17.3565 8.35457 17.4875 8.66773 17.4891 8.99482L20.489 8.98082ZM19.2684 11.976C20.0554 11.1783 20.4943 10.1013 20.489 8.98083L17.4891 8.99481C17.4906 9.3219 17.3625 9.63626 17.1328 9.86911L19.2684 11.976ZM17.2381 14.0154L19.2636 11.9809L17.1376 9.86424L15.1121 11.8988L17.2381 14.0154ZM15.0408 14.4571H16.1751V11.4571H15.0408V14.4571ZM12.6748 13.4776C13.2955 14.0983 14.1441 14.4571 15.0408 14.4571V11.4571C14.9472 11.4571 14.8595 11.4197 14.7961 11.3563L12.6748 13.4776ZM9.96506 10.7679L12.6748 13.4776L14.7961 11.3563L12.0864 8.64657L9.96506 10.7679ZM10.1075 10.8291C10.064 10.8291 10.009 10.8118 9.96506 10.7679L12.0864 8.64657C11.5383 8.0985 10.8171 7.82913 10.1075 7.82913V10.8291ZM10.2499 10.7679C10.206 10.8118 10.1509 10.8291 10.1075 10.8291V7.82913C9.39784 7.82913 8.67664 8.0985 8.12858 8.64657L10.2499 10.7679ZM7.53118 13.4866L10.2499 10.7679L8.12858 8.64657L5.40986 11.3653L7.53118 13.4866ZM5.16517 14.4661C6.05996 14.4661 6.89897 14.1028 7.51732 13.5003L5.42372 11.3516C5.33988 11.4333 5.24265 11.4661 5.16517 11.4661V14.4661ZM3.83282 14.4661H5.16517V11.4661H3.83282V14.4661ZM0.70831 11.9539L2.76985 14.0244L4.89579 11.9077L2.83425 9.83719L0.70831 11.9539ZM-0.518555 8.98704C-0.518555 10.1002 -0.0766978 11.1679 0.709958 11.9555L2.8326 9.83554C2.60774 9.6104 2.48145 9.30522 2.48145 8.98704H-0.518555ZM0.709957 6.01853C-0.0766975 6.80617 -0.518555 7.87384 -0.518555 8.98704H2.48145C2.48145 8.66885 2.60774 8.36367 2.8326 8.13853L0.709957 6.01853ZM2.76985 3.94964L0.70831 6.02018L2.83425 8.13688L4.89579 6.06633L2.76985 3.94964ZM5.15617 3.50799H3.83282V6.50799H5.15617V3.50799ZM7.52218 4.48747C6.90144 3.86673 6.05287 3.50799 5.15617 3.50799V6.50799C5.24974 6.50799 5.33741 6.54535 5.40085 6.60879L7.52218 4.48747ZM10.2426 7.21694L7.52393 4.48922L5.3991 6.60703L8.11782 9.33475L10.2426 7.21694ZM10.1196 7.1541C10.1576 7.15463 10.194 7.16961 10.2213 7.19599L8.13912 9.3557C8.66038 9.85826 9.35336 10.1436 10.0774 10.1538L10.1196 7.1541ZM9.95606 7.21519C9.99999 7.17126 10.055 7.15395 10.0985 7.15395V10.1539C10.8081 10.1539 11.5293 9.88457 12.0774 9.33651L9.95606 7.21519ZM12.6568 4.51448L9.95606 7.21519L12.0774 9.33651L14.7781 6.6358L12.6568 4.51448ZM15.0228 3.52599C14.1487 3.52599 13.2614 3.87641 12.6292 4.54275L14.8056 6.60752C14.8396 6.57167 14.9246 6.52599 15.0228 6.52599V3.52599ZM16.1571 3.52599H15.0228V6.52599H16.1571V3.52599Z" fill="#374151" mask="url(#path-1-inside-1_9276_32036)"/>
</svg>
