<svg width="18" height="18" viewBox="0 0 18 18" fill="none" xmlns="http://www.w3.org/2000/svg">
<path d="M4.35328 16.1565V11.1038C4.35328 10.639 3.97602 10.2617 3.51118 10.2617H1.82697C1.36213 10.2617 0.984863 10.639 0.984863 11.1038V16.1565C0.984863 16.6213 1.36213 16.9986 1.82697 16.9986H3.51118C3.97602 16.9986 4.35328 16.6213 4.35328 16.1565ZM4.35328 16.1565L5.62292 16.1567C5.62292 16.1567 6.17197 16.1904 6.43892 16.2577L8.6705 16.8152C9.15471 16.9365 9.65913 16.9482 10.1484 16.8506L12.6158 16.3571C13.2676 16.2266 13.8671 15.9057 14.337 15.4358L16.0827 13.6901C16.5812 13.1925 16.5812 12.3849 16.0827 11.8864C15.6339 11.4375 14.9231 11.387 14.4153 11.7676L12.3808 13.2935C12.0894 13.5125 11.7349 13.6304 11.3703 13.6304H9.40566L10.6562 13.6301C11.361 13.6301 11.932 13.0592 11.932 12.3544V12.0992C11.932 11.5139 11.5337 11.0036 10.9661 10.8621L9.03598 10.3796C8.72187 10.3013 8.40019 10.2617 8.07682 10.2617C7.29619 10.2617 5.88313 10.9261 5.88313 10.9261L4.35303 11.9459M7.44139 7.73538H14.7399C15.5146 7.73538 16.1429 7.10717 16.1429 6.33159V2.40232C16.1429 1.62675 15.5146 0.998535 14.7391 0.998535H7.44054C6.66581 0.998535 6.0376 1.62675 6.0376 2.40232V6.33243C6.0376 7.10717 6.66581 7.73538 7.44139 7.73538ZM11.9832 3.47348C12.4767 3.96695 12.4767 4.76779 11.9832 5.26043C11.4898 5.75306 10.6889 5.7539 10.1963 5.26043C9.7028 4.76695 9.7028 3.96611 10.1963 3.47348C10.6898 2.98085 11.4898 2.98085 11.9832 3.47348Z" stroke="#374151" stroke-width="1.5" stroke-linecap="round" stroke-linejoin="round"/>
<path d="M4.35328 16.1565V11.1038C4.35328 10.639 3.97602 10.2617 3.51118 10.2617H1.82697C1.36213 10.2617 0.984863 10.639 0.984863 11.1038V16.1565C0.984863 16.6213 1.36213 16.9986 1.82697 16.9986H3.51118C3.97602 16.9986 4.35328 16.6213 4.35328 16.1565ZM4.35328 16.1565L5.62292 16.1567C5.62292 16.1567 6.17197 16.1904 6.43892 16.2577L8.6705 16.8152C9.15471 16.9365 9.65913 16.9482 10.1484 16.8506L12.6158 16.3571C13.2676 16.2266 13.8671 15.9057 14.337 15.4358L16.0827 13.6901C16.5812 13.1925 16.5812 12.3849 16.0827 11.8864C15.6339 11.4375 14.9231 11.387 14.4153 11.7676L12.3808 13.2935C12.0894 13.5125 11.7349 13.6304 11.3703 13.6304H9.40566L10.6562 13.6301C11.361 13.6301 11.932 13.0592 11.932 12.3544V12.0992C11.932 11.5139 11.5337 11.0036 10.9661 10.8621L9.03598 10.3796C8.72187 10.3013 8.40019 10.2617 8.07682 10.2617C7.29619 10.2617 5.88313 10.9261 5.88313 10.9261L4.35303 11.9459M7.44139 7.73538H14.7399C15.5146 7.73538 16.1429 7.10717 16.1429 6.33159V2.40232C16.1429 1.62675 15.5146 0.998535 14.7391 0.998535H7.44054C6.66581 0.998535 6.0376 1.62675 6.0376 2.40232V6.33243C6.0376 7.10717 6.66581 7.73538 7.44139 7.73538ZM11.9832 3.47348C12.4767 3.96695 12.4767 4.76779 11.9832 5.26043C11.4898 5.75306 10.6889 5.7539 10.1963 5.26043C9.7028 4.76695 9.7028 3.96611 10.1963 3.47348C10.6898 2.98085 11.4898 2.98085 11.9832 3.47348Z" stroke="black" stroke-opacity="0.2" stroke-width="1.5" stroke-linecap="round" stroke-linejoin="round"/>
</svg>
