<svg width="24" height="24" viewBox="0 0 24 24" fill="none" xmlns="http://www.w3.org/2000/svg">
<g clip-path="url(#clip0_9276_32558)">
<g clip-path="url(#clip1_9276_32558)">
<path d="M19.0343 11.9988C19.0344 13.3833 18.624 14.7367 17.8549 15.8879C17.0858 17.0391 15.9927 17.9364 14.7136 18.4663C13.4346 18.9963 12.0271 19.135 10.6692 18.865C9.31134 18.595 8.06401 17.9285 7.08496 16.9496C6.10591 15.9707 5.43912 14.7235 5.1689 13.3656C4.89869 12.0078 5.0372 10.6003 5.5669 9.32117C6.09661 8.04204 6.99372 6.94872 8.1448 6.17945C9.29588 5.41018 10.6492 4.99952 12.0337 4.99941" stroke="#374151" stroke-width="1.5"/>
<path d="M17.1414 3.99823L17.1418 8.99823M17.1418 8.99823L19.2845 6.85519M17.1418 8.99823L14.9988 6.85555" stroke="#374151" stroke-width="1.5" stroke-linecap="round" stroke-linejoin="round"/>
<path d="M13.5413 9.33206L12.3805 9.33215M10.4334 14.6657L12.3809 14.6655M12.3805 9.33215L11.2197 9.33225C9.63783 9.33239 9.56506 11.9571 11.1655 11.9569L13.2863 11.9568C14.829 11.9986 14.8292 14.6653 13.2865 14.6654L12.3809 14.6655M12.3805 9.33215L12.3804 7.99882M12.3809 14.6655L12.381 15.9988" stroke="#374151" stroke-width="1.5" stroke-linecap="round"/>
</g>
</g>
<defs>
<clipPath id="clip0_9276_32558">
<rect width="24" height="24" fill="white"/>
</clipPath>
<clipPath id="clip1_9276_32558">
<rect width="24" height="24" fill="white"/>
</clipPath>
</defs>
</svg>
