<svg width="19" height="18" viewBox="0 0 19 18" fill="none" xmlns="http://www.w3.org/2000/svg">
<path d="M9.84912 1.81343C10.9402 2.9043 10.9403 4.67311 9.84945 5.76417C8.75858 6.85523 6.98977 6.85538 5.89871 5.76451C4.80765 4.67363 4.8075 2.90482 5.89837 1.81376C6.98925 0.722702 8.75806 0.722552 9.84912 1.81343" stroke="#C82844" stroke-opacity="0.86" stroke-width="1.5" stroke-linecap="round" stroke-linejoin="round"/>
<path d="M11.3651 9.63193C10.3258 9.21682 9.10661 8.98812 7.87461 8.98823C4.63621 8.9885 1.47474 10.5624 1.47495 12.9824L1.47502 13.7824C1.47505 14.224 1.83348 14.5823 2.27508 14.5823L9.80548 14.5817" stroke="#C82844" stroke-opacity="0.86" stroke-width="1.5" stroke-linecap="round" stroke-linejoin="round"/>
<path d="M13.4743 16.9948C11.2655 16.995 9.47416 15.2047 9.47397 12.9951C9.47379 10.8319 11.3136 8.99256 13.4768 8.99478C15.6848 8.99619 17.4738 10.7864 17.474 12.9944C17.4742 15.2032 15.6839 16.9946 13.4743 16.9948" stroke="#C82844" stroke-opacity="0.86" stroke-width="1.5" stroke-linecap="round" stroke-linejoin="round"/>
<path d="M13.4744 12.8192L13.4742 11.2192" stroke="#C82844" stroke-opacity="0.86" stroke-width="1.5" stroke-linecap="round" stroke-linejoin="round"/>
<path d="M13.4751 14.7953C13.5367 14.7953 13.5863 14.7457 13.5854 14.6841C13.5854 14.6225 13.5358 14.5729 13.4742 14.5729C13.4126 14.573 13.363 14.6226 13.363 14.6842C13.3631 14.7458 13.4127 14.7954 13.4751 14.7953" stroke="#C82844" stroke-opacity="0.86" stroke-width="1.5" stroke-linecap="round" stroke-linejoin="round"/>
</svg>
