<svg width="18" height="18" viewBox="0 0 18 18" fill="none" xmlns="http://www.w3.org/2000/svg">
<path d="M10.5318 0.998047V3.93632" stroke="#374151" stroke-width="1.5" stroke-linecap="round" stroke-linejoin="round"/>
<path d="M10.5318 0.998047V3.93632" stroke="black" stroke-opacity="0.2" stroke-width="1.5" stroke-linecap="round" stroke-linejoin="round"/>
<path d="M4.65537 0.998047V3.93632" stroke="#374151" stroke-width="1.5" stroke-linecap="round" stroke-linejoin="round"/>
<path d="M4.65537 0.998047V3.93632" stroke="black" stroke-opacity="0.2" stroke-width="1.5" stroke-linecap="round" stroke-linejoin="round"/>
<path d="M0.982422 6.13975H14.2046" stroke="#374151" stroke-width="1.5" stroke-linecap="round" stroke-linejoin="round"/>
<path d="M0.982422 6.13975H14.2046" stroke="black" stroke-opacity="0.2" stroke-width="1.5" stroke-linecap="round" stroke-linejoin="round"/>
<path d="M9.95464 14.9549H2.45156C1.63986 14.9549 0.982422 14.2975 0.982422 13.4858V3.93642C0.982422 3.12472 1.63986 2.46729 2.45156 2.46729H12.7355C13.5472 2.46729 14.2046 3.12472 14.2046 3.93642V10.9147" stroke="#374151" stroke-width="1.5" stroke-linecap="round" stroke-linejoin="round"/>
<path d="M9.95464 14.9549H2.45156C1.63986 14.9549 0.982422 14.2975 0.982422 13.4858V3.93642C0.982422 3.12472 1.63986 2.46729 2.45156 2.46729H12.7355C13.5472 2.46729 14.2046 3.12472 14.2046 3.93642V10.9147" stroke="black" stroke-opacity="0.2" stroke-width="1.5" stroke-linecap="round" stroke-linejoin="round"/>
<path d="M3.93003 8.87944C3.82866 8.87944 3.74639 8.96171 3.74712 9.06308C3.74712 9.16446 3.82939 9.24673 3.93076 9.24673C4.03213 9.24673 4.11441 9.16446 4.11441 9.06308C4.11441 8.96171 4.03213 8.87944 3.93003 8.87944" stroke="#374151" stroke-width="1.5" stroke-linecap="round" stroke-linejoin="round"/>
<path d="M3.93003 8.87944C3.82866 8.87944 3.74639 8.96171 3.74712 9.06308C3.74712 9.16446 3.82939 9.24673 3.93076 9.24673C4.03213 9.24673 4.11441 9.16446 4.11441 9.06308C4.11441 8.96171 4.03213 8.87944 3.93003 8.87944" stroke="black" stroke-opacity="0.2" stroke-width="1.5" stroke-linecap="round" stroke-linejoin="round"/>
<path d="M7.60312 8.87944C7.50175 8.87944 7.41948 8.96171 7.42022 9.06308C7.42022 9.16446 7.50249 9.24673 7.60386 9.24673C7.70523 9.24673 7.7875 9.16446 7.7875 9.06308C7.7875 8.96171 7.70523 8.87944 7.60312 8.87944" stroke="#374151" stroke-width="1.5" stroke-linecap="round" stroke-linejoin="round"/>
<path d="M7.60312 8.87944C7.50175 8.87944 7.41948 8.96171 7.42022 9.06308C7.42022 9.16446 7.50249 9.24673 7.60386 9.24673C7.70523 9.24673 7.7875 9.16446 7.7875 9.06308C7.7875 8.96171 7.70523 8.87944 7.60312 8.87944" stroke="black" stroke-opacity="0.2" stroke-width="1.5" stroke-linecap="round" stroke-linejoin="round"/>
<path d="M11.2757 8.87944C11.1744 8.87944 11.0921 8.96171 11.0928 9.06308C11.0928 9.16446 11.1751 9.24673 11.2765 9.24673C11.3778 9.24673 11.4601 9.16446 11.4601 9.06308C11.4601 8.96171 11.3778 8.87944 11.2757 8.87944" stroke="#374151" stroke-width="1.5" stroke-linecap="round" stroke-linejoin="round"/>
<path d="M11.2757 8.87944C11.1744 8.87944 11.0921 8.96171 11.0928 9.06308C11.0928 9.16446 11.1751 9.24673 11.2765 9.24673C11.3778 9.24673 11.4601 9.16446 11.4601 9.06308C11.4601 8.96171 11.3778 8.87944 11.2757 8.87944" stroke="black" stroke-opacity="0.2" stroke-width="1.5" stroke-linecap="round" stroke-linejoin="round"/>
<path d="M3.93003 11.8174C3.82866 11.8174 3.74639 11.8997 3.74712 12.0011C3.74712 12.1024 3.82939 12.1847 3.93076 12.1847C4.03213 12.1847 4.11441 12.1024 4.11441 12.0011C4.11441 11.8997 4.03213 11.8174 3.93003 11.8174" stroke="#374151" stroke-width="1.5" stroke-linecap="round" stroke-linejoin="round"/>
<path d="M3.93003 11.8174C3.82866 11.8174 3.74639 11.8997 3.74712 12.0011C3.74712 12.1024 3.82939 12.1847 3.93076 12.1847C4.03213 12.1847 4.11441 12.1024 4.11441 12.0011C4.11441 11.8997 4.03213 11.8174 3.93003 11.8174" stroke="black" stroke-opacity="0.2" stroke-width="1.5" stroke-linecap="round" stroke-linejoin="round"/>
<path d="M7.60312 11.8174C7.50175 11.8174 7.41948 11.8997 7.42022 12.0011C7.42022 12.1024 7.50249 12.1847 7.60386 12.1847C7.70523 12.1847 7.7875 12.1024 7.7875 12.0011C7.7875 11.8997 7.70523 11.8174 7.60312 11.8174" stroke="#374151" stroke-width="1.5" stroke-linecap="round" stroke-linejoin="round"/>
<path d="M7.60312 11.8174C7.50175 11.8174 7.41948 11.8997 7.42022 12.0011C7.42022 12.1024 7.50249 12.1847 7.60386 12.1847C7.70523 12.1847 7.7875 12.1024 7.7875 12.0011C7.7875 11.8997 7.70523 11.8174 7.60312 11.8174" stroke="black" stroke-opacity="0.2" stroke-width="1.5" stroke-linecap="round" stroke-linejoin="round"/>
<path d="M14.2046 13.2759L12.3157 15.1648M14.2046 15.1648L12.3157 13.2759" stroke="#374151" stroke-width="1.5" stroke-linecap="round" stroke-linejoin="round"/>
<path d="M14.2046 13.2759L12.3157 15.1648M14.2046 15.1648L12.3157 13.2759" stroke="black" stroke-opacity="0.2" stroke-width="1.5" stroke-linecap="round" stroke-linejoin="round"/>
<circle cx="13.2602" cy="14.2202" r="3.02778" stroke="#374151" stroke-width="1.5"/>
<circle cx="13.2602" cy="14.2202" r="3.02778" stroke="black" stroke-opacity="0.2" stroke-width="1.5"/>
</svg>
