<svg width="24" height="24" viewBox="0 0 24 24" fill="none" xmlns="http://www.w3.org/2000/svg">
<g clip-path="url(#clip0_4455_36752)">
<g clip-path="url(#clip1_4455_36752)">
<path d="M4 18.1772V17.3536C4 15.8247 4.60738 14.3583 5.68853 13.2772C6.76968 12.196 8.23604 11.5886 9.76502 11.5886" stroke="#111827" stroke-width="1.5" stroke-linecap="round" stroke-linejoin="round"/>
<path d="M15.3689 11.8471C15.494 11.7103 15.6461 11.601 15.8157 11.5262C15.9853 11.4515 16.1686 11.4128 16.3539 11.4128C16.5393 11.4128 16.7226 11.4515 16.8922 11.5262C17.0618 11.601 17.2139 11.7103 17.3389 11.8471C17.6066 12.1403 17.9896 12.2993 18.3865 12.2803C18.5718 12.2719 18.7567 12.3022 18.9296 12.3692C19.1025 12.4362 19.2595 12.5386 19.3906 12.6697C19.5217 12.8008 19.6241 12.9578 19.6911 13.1307C19.7582 13.3036 19.7884 13.4886 19.78 13.6738C19.7611 14.0699 19.92 14.4537 20.2132 14.7214C20.7938 15.2501 20.7938 16.1626 20.2132 16.6914C19.92 16.959 19.7611 17.342 19.78 17.739C19.7884 17.9242 19.7582 18.1092 19.6911 18.282C19.6241 18.4549 19.5217 18.6119 19.3906 18.7431C19.2595 18.8742 19.1025 18.9765 18.9296 19.0436C18.7567 19.1106 18.5718 19.1409 18.3865 19.1324C18.1908 19.1233 17.9955 19.1574 17.8144 19.2323C17.6334 19.3071 17.471 19.421 17.3389 19.5656C17.2139 19.7025 17.0618 19.8118 16.8922 19.8865C16.7226 19.9613 16.5393 19.9999 16.3539 19.9999C16.1686 19.9999 15.9853 19.9613 15.8157 19.8865C15.6461 19.8118 15.494 19.7025 15.3689 19.5656C15.2368 19.421 15.0745 19.3071 14.8934 19.2323C14.7124 19.1574 14.5171 19.1233 14.3214 19.1324C14.1361 19.1409 13.9512 19.1106 13.7783 19.0436C13.6054 18.9765 13.4484 18.8742 13.3173 18.7431C13.1861 18.6119 13.0838 18.4549 13.0168 18.282C12.9497 18.1092 12.9194 17.9242 12.9279 17.739C12.9369 17.5432 12.9027 17.3478 12.8277 17.1668C12.7527 16.9857 12.6387 16.8234 12.4938 16.6914C12.357 16.5664 12.2477 16.4142 12.173 16.2446C12.0982 16.075 12.0596 15.8917 12.0596 15.7064C12.0596 15.521 12.0982 15.3377 12.173 15.1681C12.2477 14.9986 12.357 14.8464 12.4938 14.7214C12.7879 14.4537 12.9468 14.0708 12.9279 13.6738C12.9194 13.4886 12.9497 13.3036 13.0168 13.1307C13.0838 12.9578 13.1861 12.8008 13.3173 12.6697C13.4484 12.5386 13.6054 12.4362 13.7783 12.3692C13.9512 12.3022 14.1361 12.2719 14.3214 12.2803C14.7175 12.2993 15.1013 12.1411 15.3689 11.8471Z" stroke="#111827" stroke-width="1.5"/>
<path d="M15.0062 15.7065L15.9039 16.6042L17.701 14.8088M9.765 11.5886C10.6387 11.5886 11.4766 11.2415 12.0944 10.6237C12.7122 10.0059 13.0593 9.168 13.0593 8.2943C13.0593 7.42059 12.7122 6.58268 12.0944 5.96488C11.4766 5.34708 10.6387 5 9.765 5C8.8913 5 8.05338 5.34708 7.43558 5.96488C6.81778 6.58268 6.4707 7.42059 6.4707 8.2943C6.4707 9.168 6.81778 10.0059 7.43558 10.6237C8.05338 11.2415 8.8913 11.5886 9.765 11.5886Z" stroke="#111827" stroke-width="1.5" stroke-linecap="round" stroke-linejoin="round"/>
</g>
</g>
<defs>
<clipPath id="clip0_4455_36752">
<rect width="24" height="24" fill="white"/>
</clipPath>
<clipPath id="clip1_4455_36752">
<rect width="24" height="24" fill="white"/>
</clipPath>
</defs>
</svg>
