<svg width="17" height="17" viewBox="0 0 17 17" fill="none" xmlns="http://www.w3.org/2000/svg">
<path fill-rule="evenodd" clip-rule="evenodd" d="M14.7364 0.245117V0.995117V2.24512H15.9864H16.7364V3.74512H15.9864H14.7364V4.99512V5.74512H13.2364V4.99512V3.74512H11.9864H11.2364V2.24512H11.9864H13.2364V0.995117V0.245117H14.7364ZM6.98677 7.49596C8.36748 7.49596 9.48677 6.37667 9.48677 4.99596C9.48677 3.61525 8.36748 2.49596 6.98677 2.49596C5.60605 2.49596 4.48677 3.61525 4.48677 4.99596C4.48677 6.37667 5.60605 7.49596 6.98677 7.49596ZM6.98677 8.99596C9.1959 8.99596 10.9868 7.2051 10.9868 4.99596C10.9868 2.78682 9.1959 0.995961 6.98677 0.995961C4.77763 0.995961 2.98677 2.78682 2.98677 4.99596C2.98677 7.2051 4.77763 8.99596 6.98677 8.99596ZM6.98717 9.74564C3.97036 9.74564 2.19703 10.6784 1.22814 12.0667C0.298088 13.3993 0.237445 14.9877 0.237549 15.9962L0.237626 16.7462L1.73763 16.7461L1.73755 15.9961C1.73745 15.0046 1.81779 13.8427 2.4582 12.9251C3.05975 12.0632 4.28634 11.2456 6.98717 11.2456C9.84124 11.2456 11.0413 11.9685 11.5964 12.744C12.1946 13.5796 12.2375 14.702 12.2376 15.9951L12.2377 16.7451L13.7377 16.745L13.7376 15.995V15.9894C13.7375 14.782 13.7374 13.1577 12.8161 11.8709C11.8504 10.5219 10.0503 9.74564 6.98717 9.74564Z" fill="#374151"/>
<path fill-rule="evenodd" clip-rule="evenodd" d="M14.7364 0.245117V0.995117V2.24512H15.9864H16.7364V3.74512H15.9864H14.7364V4.99512V5.74512H13.2364V4.99512V3.74512H11.9864H11.2364V2.24512H11.9864H13.2364V0.995117V0.245117H14.7364ZM6.98677 7.49596C8.36748 7.49596 9.48677 6.37667 9.48677 4.99596C9.48677 3.61525 8.36748 2.49596 6.98677 2.49596C5.60605 2.49596 4.48677 3.61525 4.48677 4.99596C4.48677 6.37667 5.60605 7.49596 6.98677 7.49596ZM6.98677 8.99596C9.1959 8.99596 10.9868 7.2051 10.9868 4.99596C10.9868 2.78682 9.1959 0.995961 6.98677 0.995961C4.77763 0.995961 2.98677 2.78682 2.98677 4.99596C2.98677 7.2051 4.77763 8.99596 6.98677 8.99596ZM6.98717 9.74564C3.97036 9.74564 2.19703 10.6784 1.22814 12.0667C0.298088 13.3993 0.237445 14.9877 0.237549 15.9962L0.237626 16.7462L1.73763 16.7461L1.73755 15.9961C1.73745 15.0046 1.81779 13.8427 2.4582 12.9251C3.05975 12.0632 4.28634 11.2456 6.98717 11.2456C9.84124 11.2456 11.0413 11.9685 11.5964 12.744C12.1946 13.5796 12.2375 14.702 12.2376 15.9951L12.2377 16.7451L13.7377 16.745L13.7376 15.995V15.9894C13.7375 14.782 13.7374 13.1577 12.8161 11.8709C11.8504 10.5219 10.0503 9.74564 6.98717 9.74564Z" fill="black" fill-opacity="0.2"/>
</svg>
