<svg width="24" height="18" viewBox="0 0 24 18" fill="none" xmlns="http://www.w3.org/2000/svg">
<path fill-rule="evenodd" clip-rule="evenodd" d="M23.2977 8.27772C23.1971 10.2669 22.2819 12.041 20.8789 13.2739L16.8622 17.245C16.6336 17.471 16.246 17.3091 16.246 16.9879V15.6327C16.246 15.3092 15.9837 15.0469 15.6603 15.0471L7.13825 15.0482C3.36178 15.0482 0.27024 12.1157 0.0174 8.40396C-0.26825 4.21041 2.99865 0.775391 7.20276 0.775391H16.1053C20.236 0.775391 23.5061 4.15295 23.2977 8.27772ZM15.8924 3.79186H7.33993C5.12294 3.79186 3.31488 5.54227 3.22294 7.73627C3.12451 10.0856 5.03471 12.0319 7.38645 12.0319H15.9389C18.1559 12.0319 19.9637 10.2813 20.0559 8.08735C20.1545 5.73802 18.2441 3.79186 15.8924 3.79186ZM16.0323 9.69837C15.0141 9.69837 14.1887 8.87368 14.1887 7.8562C14.1887 6.83891 15.0141 6.01403 16.0323 6.01403C17.0505 6.01403 17.876 6.83891 17.876 7.8562C17.876 8.87368 17.0505 9.69837 16.0323 9.69837ZM11.6536 9.69837C10.6354 9.69837 9.80993 8.87368 9.80993 7.8562C9.80993 6.83891 10.6354 6.01403 11.6536 6.01403C12.6718 6.01403 13.4972 6.83891 13.4972 7.8562C13.4972 8.87368 12.6718 9.69837 11.6536 9.69837ZM7.27486 9.69837C6.25665 9.69837 5.43121 8.87368 5.43121 7.8562C5.43121 6.83891 6.25665 6.01403 7.27486 6.01403C8.29308 6.01403 9.11852 6.83891 9.11852 7.8562C9.11852 8.87368 8.29308 9.69837 7.27486 9.69837Z" fill="#7D8697"/>
</svg>
