<svg width="133" height="94" viewBox="0 0 133 94" fill="none" xmlns="http://www.w3.org/2000/svg">
<path fill-rule="evenodd" clip-rule="evenodd" d="M132.19 42.7124C131.622 53.9314 126.451 63.9374 118.525 70.8904L95.833 93.2874C94.542 94.5614 92.352 93.6494 92.352 91.8374V84.1944C92.352 82.3694 90.87 80.8914 89.042 80.8914L40.899 80.8984C19.563 80.8984 2.09798 64.3584 0.669984 43.4244C-0.944016 19.7724 17.512 0.399414 41.262 0.399414H91.557C114.893 0.399414 133.367 19.4494 132.19 42.7124ZM90.354 17.4124H42.038C29.513 17.4124 19.299 27.2844 18.779 39.6584C18.223 52.9084 29.014 63.8854 42.3 63.8854H90.617C103.141 63.8854 113.355 54.0134 113.875 41.6394C114.432 28.3894 103.64 17.4124 90.354 17.4124ZM91.144 50.7254C85.392 50.7254 80.728 46.0734 80.728 40.3354C80.728 34.5974 85.392 29.9454 91.144 29.9454C96.897 29.9454 101.56 34.5974 101.56 40.3354C101.56 46.0734 96.897 50.7254 91.144 50.7254ZM66.407 50.7254C60.655 50.7254 55.992 46.0734 55.992 40.3354C55.992 34.5974 60.655 29.9454 66.407 29.9454C72.159 29.9454 76.822 34.5974 76.822 40.3354C76.822 46.0734 72.159 50.7254 66.407 50.7254ZM41.67 50.7254C35.917 50.7254 31.254 46.0734 31.254 40.3354C31.254 34.5974 35.917 29.9454 41.67 29.9454C47.422 29.9454 52.086 34.5974 52.086 40.3354C52.086 46.0734 47.422 50.7254 41.67 50.7254Z" fill="white"/>
</svg>
